0
SECTION
2
HEADER
9
$ANGDIR
70
1
9
$AUNITS
70
0
9
$PROJECTNAME
1
CP2104 USB to UART
9
$TDCREATE
40
2460002.37015388
9
$INSUNITS
70
4
0
ENDSEC
0
SECTION
2
ENTITIES
0
POLYLINE
66
1
8
outline
10
0.0
20
0.0
30
0.0
70
1
0
VERTEX
8
0
10
0
20
0
30
0
0
VERTEX
8
0
10
25
20
0
30
0
0
VERTEX
8
0
10
25
20
28
30
0
0
VERTEX
8
0
10
0
20
28
30
0
0
VERTEX
8
0
10
0
20
0
30
0
0
SEQEND
0
POLYLINE
66
1
8
holes
10
0.0
20
0.0
30
0.0
70
1
0
VERTEX
8
0
10
14.595
20
2.54
30
0
0
VERTEX
8
0
10
14.596256250000001
20
2.5112375
30
0
0
VERTEX
8
0
10
14.6000125
20
2.4826968750000002
30
0
0
VERTEX
8
0
10
14.60624375
20
2.4545906250000002
30
0
0
VERTEX
8
0
10
14.6149
20
2.427134375
30
0
0
VERTEX
8
0
10
14.62591875
20
2.4005375
30
0
0
VERTEX
8
0
10
14.639212500000001
20
2.375
30
0
0
VERTEX
8
0
10
14.654681250000001
20
2.35071875
30
0
0
VERTEX
8
0
10
14.67220625
20
2.32788125
30
0
0
VERTEX
8
0
10
14.691656250000001
20
2.30665625
30
0
0
VERTEX
8
0
10
14.71288125
20
2.28720625
30
0
0
VERTEX
8
0
10
14.73571875
20
2.26968125
30
0
0
VERTEX
8
0
10
14.760000000000002
20
2.2542125
30
0
0
VERTEX
8
0
10
14.7855375
20
2.24091875
30
0
0
VERTEX
8
0
10
14.812134375000001
20
2.2299
30
0
0
VERTEX
8
0
10
14.839590625000001
20
2.22124375
30
0
0
VERTEX
8
0
10
14.867696875
20
2.2150125000000003
30
0
0
VERTEX
8
0
10
14.896237500000002
20
2.21125625
30
0
0
VERTEX
8
0
10
14.925
20
2.21
30
0
0
VERTEX
8
0
10
14.965
20
2.21
30
0
0
VERTEX
8
0
10
14.9937625
20
2.21125625
30
0
0
VERTEX
8
0
10
15.022303125
20
2.2150125000000003
30
0
0
VERTEX
8
0
10
15.050409375000001
20
2.22124375
30
0
0
VERTEX
8
0
10
15.077865625000001
20
2.2299
30
0
0
VERTEX
8
0
10
15.1044625
20
2.24091875
30
0
0
VERTEX
8
0
10
15.13
20
2.2542125
30
0
0
VERTEX
8
0
10
15.15428125
20
2.26968125
30
0
0
VERTEX
8
0
10
15.17711875
20
2.28720625
30
0
0
VERTEX
8
0
10
15.198343750000001
20
2.30665625
30
0
0
VERTEX
8
0
10
15.21779375
20
2.32788125
30
0
0
VERTEX
8
0
10
15.235318750000001
20
2.35071875
30
0
0
VERTEX
8
0
10
15.250787500000001
20
2.375
30
0
0
VERTEX
8
0
10
15.26408125
20
2.4005375
30
0
0
VERTEX
8
0
10
15.2751
20
2.427134375
30
0
0
VERTEX
8
0
10
15.283756250000001
20
2.4545906250000002
30
0
0
VERTEX
8
0
10
15.2899875
20
2.4826968750000002
30
0
0
VERTEX
8
0
10
15.29374375
20
2.5112375
30
0
0
VERTEX
8
0
10
15.295
20
2.54
30
0
0
VERTEX
8
0
10
15.295
20
3.08
30
0
0
VERTEX
8
0
10
15.29374375
20
3.1087625
30
0
0
VERTEX
8
0
10
15.2899875
20
3.1373031250000003
30
0
0
VERTEX
8
0
10
15.283756250000001
20
3.1654093750000003
30
0
0
VERTEX
8
0
10
15.2751
20
3.192865625
30
0
0
VERTEX
8
0
10
15.26408125
20
3.2194625
30
0
0
VERTEX
8
0
10
15.250787500000001
20
3.245
30
0
0
VERTEX
8
0
10
15.235318750000001
20
3.26928125
30
0
0
VERTEX
8
0
10
15.21779375
20
3.29211875
30
0
0
VERTEX
8
0
10
15.198343750000001
20
3.31334375
30
0
0
VERTEX
8
0
10
15.17711875
20
3.33279375
30
0
0
VERTEX
8
0
10
15.15428125
20
3.35031875
30
0
0
VERTEX
8
0
10
15.13
20
3.3657875
30
0
0
VERTEX
8
0
10
15.1044625
20
3.37908125
30
0
0
VERTEX
8
0
10
15.077865625000001
20
3.3901000000000003
30
0
0
VERTEX
8
0
10
15.050409375000001
20
3.3987562500000004
30
0
0
VERTEX
8
0
10
15.022303125
20
3.4049875000000003
30
0
0
VERTEX
8
0
10
14.9937625
20
3.40874375
30
0
0
VERTEX
8
0
10
14.965
20
3.41
30
0
0
VERTEX
8
0
10
14.925
20
3.41
30
0
0
VERTEX
8
0
10
14.896237500000002
20
3.40874375
30
0
0
VERTEX
8
0
10
14.867696875
20
3.4049875000000003
30
0
0
VERTEX
8
0
10
14.839590625000001
20
3.3987562500000004
30
0
0
VERTEX
8
0
10
14.812134375000001
20
3.3901000000000003
30
0
0
VERTEX
8
0
10
14.7855375
20
3.37908125
30
0
0
VERTEX
8
0
10
14.760000000000002
20
3.3657875
30
0
0
VERTEX
8
0
10
14.73571875
20
3.35031875
30
0
0
VERTEX
8
0
10
14.71288125
20
3.33279375
30
0
0
VERTEX
8
0
10
14.691656250000001
20
3.31334375
30
0
0
VERTEX
8
0
10
14.67220625
20
3.29211875
30
0
0
VERTEX
8
0
10
14.654681250000001
20
3.26928125
30
0
0
VERTEX
8
0
10
14.639212500000001
20
3.245
30
0
0
VERTEX
8
0
10
14.62591875
20
3.2194625
30
0
0
VERTEX
8
0
10
14.6149
20
3.192865625
30
0
0
VERTEX
8
0
10
14.60624375
20
3.1654093750000003
30
0
0
VERTEX
8
0
10
14.6000125
20
3.1373031250000003
30
0
0
VERTEX
8
0
10
14.596256250000001
20
3.1087625
30
0
0
VERTEX
8
0
10
14.595
20
3.08
30
0
0
VERTEX
8
0
10
14.595
20
2.54
30
0
0
SEQEND
0
POLYLINE
66
1
8
holes
10
0.0
20
0.0
30
0.0
70
1
0
VERTEX
8
0
10
9.145
20
2.54
30
0
0
VERTEX
8
0
10
9.14625625
20
2.5112375
30
0
0
VERTEX
8
0
10
9.1500125
20
2.4826968750000002
30
0
0
VERTEX
8
0
10
9.15624375
20
2.4545906250000002
30
0
0
VERTEX
8
0
10
9.164900000000001
20
2.427134375
30
0
0
VERTEX
8
0
10
9.175918750000001
20
2.4005375
30
0
0
VERTEX
8
0
10
9.1892125
20
2.375
30
0
0
VERTEX
8
0
10
9.20468125
20
2.35071875
30
0
0
VERTEX
8
0
10
9.222206250000001
20
2.32788125
30
0
0
VERTEX
8
0
10
9.24165625
20
2.30665625
30
0
0
VERTEX
8
0
10
9.262881250000001
20
2.28720625
30
0
0
VERTEX
8
0
10
9.285718750000001
20
2.26968125
30
0
0
VERTEX
8
0
10
9.31
20
2.2542125
30
0
0
VERTEX
8
0
10
9.335537500000001
20
2.24091875
30
0
0
VERTEX
8
0
10
9.362134375
20
2.2299
30
0
0
VERTEX
8
0
10
9.389590625
20
2.22124375
30
0
0
VERTEX
8
0
10
9.417696875
20
2.2150125000000003
30
0
0
VERTEX
8
0
10
9.4462375
20
2.21125625
30
0
0
VERTEX
8
0
10
9.475
20
2.21
30
0
0
VERTEX
8
0
10
9.515
20
2.21
30
0
0
VERTEX
8
0
10
9.5437625
20
2.21125625
30
0
0
VERTEX
8
0
10
9.572303125000001
20
2.2150125000000003
30
0
0
VERTEX
8
0
10
9.600409375
20
2.22124375
30
0
0
VERTEX
8
0
10
9.627865625
20
2.2299
30
0
0
VERTEX
8
0
10
9.654462500000001
20
2.24091875
30
0
0
VERTEX
8
0
10
9.68
20
2.2542125
30
0
0
VERTEX
8
0
10
9.704281250000001
20
2.26968125
30
0
0
VERTEX
8
0
10
9.72711875
20
2.28720625
30
0
0
VERTEX
8
0
10
9.74834375
20
2.30665625
30
0
0
VERTEX
8
0
10
9.767793750000001
20
2.32788125
30
0
0
VERTEX
8
0
10
9.78531875
20
2.35071875
30
0
0
VERTEX
8
0
10
9.8007875
20
2.375
30
0
0
VERTEX
8
0
10
9.814081250000001
20
2.4005375
30
0
0
VERTEX
8
0
10
9.8251
20
2.427134375
30
0
0
VERTEX
8
0
10
9.83375625
20
2.4545906250000002
30
0
0
VERTEX
8
0
10
9.839987500000001
20
2.4826968750000002
30
0
0
VERTEX
8
0
10
9.84374375
20
2.5112375
30
0
0
VERTEX
8
0
10
9.845
20
2.54
30
0
0
VERTEX
8
0
10
9.845
20
3.08
30
0
0
VERTEX
8
0
10
9.84374375
20
3.1087625
30
0
0
VERTEX
8
0
10
9.839987500000001
20
3.1373031250000003
30
0
0
VERTEX
8
0
10
9.83375625
20
3.1654093750000003
30
0
0
VERTEX
8
0
10
9.8251
20
3.192865625
30
0
0
VERTEX
8
0
10
9.814081250000001
20
3.2194625
30
0
0
VERTEX
8
0
10
9.8007875
20
3.245
30
0
0
VERTEX
8
0
10
9.78531875
20
3.26928125
30
0
0
VERTEX
8
0
10
9.767793750000001
20
3.29211875
30
0
0
VERTEX
8
0
10
9.74834375
20
3.31334375
30
0
0
VERTEX
8
0
10
9.72711875
20
3.33279375
30
0
0
VERTEX
8
0
10
9.704281250000001
20
3.35031875
30
0
0
VERTEX
8
0
10
9.68
20
3.3657875
30
0
0
VERTEX
8
0
10
9.654462500000001
20
3.37908125
30
0
0
VERTEX
8
0
10
9.627865625
20
3.3901000000000003
30
0
0
VERTEX
8
0
10
9.600409375
20
3.3987562500000004
30
0
0
VERTEX
8
0
10
9.572303125000001
20
3.4049875000000003
30
0
0
VERTEX
8
0
10
9.5437625
20
3.40874375
30
0
0
VERTEX
8
0
10
9.515
20
3.41
30
0
0
VERTEX
8
0
10
9.475
20
3.41
30
0
0
VERTEX
8
0
10
9.4462375
20
3.40874375
30
0
0
VERTEX
8
0
10
9.417696875
20
3.4049875000000003
30
0
0
VERTEX
8
0
10
9.389590625
20
3.3987562500000004
30
0
0
VERTEX
8
0
10
9.362134375
20
3.3901000000000003
30
0
0
VERTEX
8
0
10
9.335537500000001
20
3.37908125
30
0
0
VERTEX
8
0
10
9.31
20
3.3657875
30
0
0
VERTEX
8
0
10
9.285718750000001
20
3.35031875
30
0
0
VERTEX
8
0
10
9.262881250000001
20
3.33279375
30
0
0
VERTEX
8
0
10
9.24165625
20
3.31334375
30
0
0
VERTEX
8
0
10
9.222206250000001
20
3.29211875
30
0
0
VERTEX
8
0
10
9.20468125
20
3.26928125
30
0
0
VERTEX
8
0
10
9.1892125
20
3.245
30
0
0
VERTEX
8
0
10
9.175918750000001
20
3.2194625
30
0
0
VERTEX
8
0
10
9.164900000000001
20
3.192865625
30
0
0
VERTEX
8
0
10
9.15624375
20
3.1654093750000003
30
0
0
VERTEX
8
0
10
9.1500125
20
3.1373031250000003
30
0
0
VERTEX
8
0
10
9.14625625
20
3.1087625
30
0
0
VERTEX
8
0
10
9.145
20
3.08
30
0
0
VERTEX
8
0
10
9.145
20
2.54
30
0
0
SEQEND
0
POLYLINE
66
1
8
holes
10
0.0
20
0.0
30
0.0
70
1
0
VERTEX
8
0
10
9.47
20
5.640000000000001
30
0
0
VERTEX
8
0
10
9.4712375
20
5.611675
30
0
0
VERTEX
8
0
10
9.474937500000001
20
5.583565625
30
0
0
VERTEX
8
0
10
9.481075
20
5.555884375000001
30
0
0
VERTEX
8
0
10
9.489600000000001
20
5.52884375
30
0
0
VERTEX
8
0
10
9.50045
20
5.50265
30
0
0
VERTEX
8
0
10
9.513540625000001
20
5.4775
30
0
0
VERTEX
8
0
10
9.528775000000001
20
5.4535875
30
0
0
VERTEX
8
0
10
9.546034375
20
5.4310937500000005
30
0
0
VERTEX
8
0
10
9.565190625
20
5.410190625
30
0
0
VERTEX
8
0
10
9.58609375
20
5.391034375
30
0
0
VERTEX
8
0
10
9.6085875
20
5.373775
30
0
0
VERTEX
8
0
10
9.6325
20
5.358540625
30
0
0
VERTEX
8
0
10
9.65765
20
5.3454500000000005
30
0
0
VERTEX
8
0
10
9.683843750000001
20
5.3346
30
0
0
VERTEX
8
0
10
9.710884375000001
20
5.326075
30
0
0
VERTEX
8
0
10
9.738565625
20
5.3199375
30
0
0
VERTEX
8
0
10
9.766675000000001
20
5.316237500000001
30
0
0
VERTEX
8
0
10
9.795
20
5.315
30
0
0
VERTEX
8
0
10
9.823325
20
5.316237500000001
30
0
0
VERTEX
8
0
10
9.851434375
20
5.3199375
30
0
0
VERTEX
8
0
10
9.879115625
20
5.326075
30
0
0
VERTEX
8
0
10
9.90615625
20
5.3346
30
0
0
VERTEX
8
0
10
9.932350000000001
20
5.3454500000000005
30
0
0
VERTEX
8
0
10
9.957500000000001
20
5.358540625
30
0
0
VERTEX
8
0
10
9.981412500000001
20
5.373775
30
0
0
VERTEX
8
0
10
10.00390625
20
5.391034375
30
0
0
VERTEX
8
0
10
10.024809375
20
5.410190625
30
0
0
VERTEX
8
0
10
10.043965625
20
5.4310937500000005
30
0
0
VERTEX
8
0
10
10.061225
20
5.4535875
30
0
0
VERTEX
8
0
10
10.076459375
20
5.4775
30
0
0
VERTEX
8
0
10
10.089550000000001
20
5.50265
30
0
0
VERTEX
8
0
10
10.1004
20
5.52884375
30
0
0
VERTEX
8
0
10
10.108925000000001
20
5.555884375000001
30
0
0
VERTEX
8
0
10
10.1150625
20
5.583565625
30
0
0
VERTEX
8
0
10
10.1187625
20
5.611675
30
0
0
VERTEX
8
0
10
10.120000000000001
20
5.640000000000001
30
0
0
VERTEX
8
0
10
10.120000000000001
20
6.04
30
0
0
VERTEX
8
0
10
10.1187625
20
6.068325000000001
30
0
0
VERTEX
8
0
10
10.1150625
20
6.096434375
30
0
0
VERTEX
8
0
10
10.108925000000001
20
6.124115625
30
0
0
VERTEX
8
0
10
10.1004
20
6.1511562500000005
30
0
0
VERTEX
8
0
10
10.089550000000001
20
6.177350000000001
30
0
0
VERTEX
8
0
10
10.076459375
20
6.202500000000001
30
0
0
VERTEX
8
0
10
10.061225
20
6.2264125
30
0
0
VERTEX
8
0
10
10.043965625
20
6.24890625
30
0
0
VERTEX
8
0
10
10.024809375
20
6.269809375
30
0
0
VERTEX
8
0
10
10.00390625
20
6.288965625
30
0
0
VERTEX
8
0
10
9.981412500000001
20
6.306225
30
0
0
VERTEX
8
0
10
9.957500000000001
20
6.321459375
30
0
0
VERTEX
8
0
10
9.932350000000001
20
6.33455
30
0
0
VERTEX
8
0
10
9.90615625
20
6.345400000000001
30
0
0
VERTEX
8
0
10
9.879115625
20
6.353925
30
0
0
VERTEX
8
0
10
9.851434375
20
6.360062500000001
30
0
0
VERTEX
8
0
10
9.823325
20
6.3637625
30
0
0
VERTEX
8
0
10
9.795
20
6.365
30
0
0
VERTEX
8
0
10
9.766675000000001
20
6.3637625
30
0
0
VERTEX
8
0
10
9.738565625
20
6.360062500000001
30
0
0
VERTEX
8
0
10
9.710884375000001
20
6.353925
30
0
0
VERTEX
8
0
10
9.683843750000001
20
6.345400000000001
30
0
0
VERTEX
8
0
10
9.65765
20
6.33455
30
0
0
VERTEX
8
0
10
9.6325
20
6.321459375
30
0
0
VERTEX
8
0
10
9.6085875
20
6.306225
30
0
0
VERTEX
8
0
10
9.58609375
20
6.288965625
30
0
0
VERTEX
8
0
10
9.565190625
20
6.269809375
30
0
0
VERTEX
8
0
10
9.546034375
20
6.24890625
30
0
0
VERTEX
8
0
10
9.528775000000001
20
6.2264125
30
0
0
VERTEX
8
0
10
9.513540625000001
20
6.202500000000001
30
0
0
VERTEX
8
0
10
9.50045
20
6.177350000000001
30
0
0
VERTEX
8
0
10
9.489600000000001
20
6.1511562500000005
30
0
0
VERTEX
8
0
10
9.481075
20
6.124115625
30
0
0
VERTEX
8
0
10
9.474937500000001
20
6.096434375
30
0
0
VERTEX
8
0
10
9.4712375
20
6.068325000000001
30
0
0
VERTEX
8
0
10
9.47
20
6.04
30
0
0
VERTEX
8
0
10
9.47
20
5.640000000000001
30
0
0
SEQEND
0
POLYLINE
66
1
8
holes
10
0.0
20
0.0
30
0.0
70
1
0
VERTEX
8
0
10
14.32
20
5.640000000000001
30
0
0
VERTEX
8
0
10
14.3212375
20
5.611675
30
0
0
VERTEX
8
0
10
14.3249375
20
5.583565625
30
0
0
VERTEX
8
0
10
14.331075
20
5.555884375000001
30
0
0
VERTEX
8
0
10
14.3396
20
5.52884375
30
0
0
VERTEX
8
0
10
14.35045
20
5.50265
30
0
0
VERTEX
8
0
10
14.363540625
20
5.4775
30
0
0
VERTEX
8
0
10
14.378775000000001
20
5.4535875
30
0
0
VERTEX
8
0
10
14.396034375000001
20
5.4310937500000005
30
0
0
VERTEX
8
0
10
14.415190625000001
20
5.410190625
30
0
0
VERTEX
8
0
10
14.436093750000001
20
5.391034375
30
0
0
VERTEX
8
0
10
14.4585875
20
5.373775
30
0
0
VERTEX
8
0
10
14.4825
20
5.358540625
30
0
0
VERTEX
8
0
10
14.50765
20
5.3454500000000005
30
0
0
VERTEX
8
0
10
14.53384375
20
5.3346
30
0
0
VERTEX
8
0
10
14.560884375
20
5.326075
30
0
0
VERTEX
8
0
10
14.588565625000001
20
5.3199375
30
0
0
VERTEX
8
0
10
14.616675
20
5.316237500000001
30
0
0
VERTEX
8
0
10
14.645000000000001
20
5.315
30
0
0
VERTEX
8
0
10
14.673325
20
5.316237500000001
30
0
0
VERTEX
8
0
10
14.701434375
20
5.3199375
30
0
0
VERTEX
8
0
10
14.729115625
20
5.326075
30
0
0
VERTEX
8
0
10
14.75615625
20
5.3346
30
0
0
VERTEX
8
0
10
14.782350000000001
20
5.3454500000000005
30
0
0
VERTEX
8
0
10
14.807500000000001
20
5.358540625
30
0
0
VERTEX
8
0
10
14.8314125
20
5.373775
30
0
0
VERTEX
8
0
10
14.853906250000001
20
5.391034375
30
0
0
VERTEX
8
0
10
14.874809375
20
5.410190625
30
0
0
VERTEX
8
0
10
14.893965625
20
5.4310937500000005
30
0
0
VERTEX
8
0
10
14.911225
20
5.4535875
30
0
0
VERTEX
8
0
10
14.926459375
20
5.4775
30
0
0
VERTEX
8
0
10
14.93955
20
5.50265
30
0
0
VERTEX
8
0
10
14.9504
20
5.52884375
30
0
0
VERTEX
8
0
10
14.958925
20
5.555884375000001
30
0
0
VERTEX
8
0
10
14.9650625
20
5.583565625
30
0
0
VERTEX
8
0
10
14.9687625
20
5.611675
30
0
0
VERTEX
8
0
10
14.97
20
5.640000000000001
30
0
0
VERTEX
8
0
10
14.97
20
6.04
30
0
0
VERTEX
8
0
10
14.9687625
20
6.068325000000001
30
0
0
VERTEX
8
0
10
14.9650625
20
6.096434375
30
0
0
VERTEX
8
0
10
14.958925
20
6.124115625
30
0
0
VERTEX
8
0
10
14.9504
20
6.1511562500000005
30
0
0
VERTEX
8
0
10
14.93955
20
6.177350000000001
30
0
0
VERTEX
8
0
10
14.926459375
20
6.202500000000001
30
0
0
VERTEX
8
0
10
14.911225
20
6.2264125
30
0
0
VERTEX
8
0
10
14.893965625
20
6.24890625
30
0
0
VERTEX
8
0
10
14.874809375
20
6.269809375
30
0
0
VERTEX
8
0
10
14.853906250000001
20
6.288965625
30
0
0
VERTEX
8
0
10
14.8314125
20
6.306225
30
0
0
VERTEX
8
0
10
14.807500000000001
20
6.321459375
30
0
0
VERTEX
8
0
10
14.782350000000001
20
6.33455
30
0
0
VERTEX
8
0
10
14.75615625
20
6.345400000000001
30
0
0
VERTEX
8
0
10
14.729115625
20
6.353925
30
0
0
VERTEX
8
0
10
14.701434375
20
6.360062500000001
30
0
0
VERTEX
8
0
10
14.673325
20
6.3637625
30
0
0
VERTEX
8
0
10
14.645000000000001
20
6.365
30
0
0
VERTEX
8
0
10
14.616675
20
6.3637625
30
0
0
VERTEX
8
0
10
14.588565625000001
20
6.360062500000001
30
0
0
VERTEX
8
0
10
14.560884375
20
6.353925
30
0
0
VERTEX
8
0
10
14.53384375
20
6.345400000000001
30
0
0
VERTEX
8
0
10
14.50765
20
6.33455
30
0
0
VERTEX
8
0
10
14.4825
20
6.321459375
30
0
0
VERTEX
8
0
10
14.4585875
20
6.306225
30
0
0
VERTEX
8
0
10
14.436093750000001
20
6.288965625
30
0
0
VERTEX
8
0
10
14.415190625000001
20
6.269809375
30
0
0
VERTEX
8
0
10
14.396034375000001
20
6.24890625
30
0
0
VERTEX
8
0
10
14.378775000000001
20
6.2264125
30
0
0
VERTEX
8
0
10
14.363540625
20
6.202500000000001
30
0
0
VERTEX
8
0
10
14.35045
20
6.177350000000001
30
0
0
VERTEX
8
0
10
14.3396
20
6.1511562500000005
30
0
0
VERTEX
8
0
10
14.331075
20
6.124115625
30
0
0
VERTEX
8
0
10
14.3249375
20
6.096434375
30
0
0
VERTEX
8
0
10
14.3212375
20
6.068325000000001
30
0
0
VERTEX
8
0
10
14.32
20
6.04
30
0
0
VERTEX
8
0
10
14.32
20
5.640000000000001
30
0
0
SEQEND
0
POLYLINE
66
1
8
holes
10
0.0
20
0.0
30
0.0
70
1
0
VERTEX
8
0
10
2.45
20
1.9705062500000001
30
0
0
VERTEX
8
0
10
2.4423
20
1.912021875
30
0
0
VERTEX
8
0
10
2.4270343750000003
20
1.855040625
30
0
0
VERTEX
8
0
10
2.404459375
20
1.80054375
30
0
0
VERTEX
8
0
10
2.374965625
20
1.7494562500000002
30
0
0
VERTEX
8
0
10
2.339053125
20
1.70265625
30
0
0
VERTEX
8
0
10
2.29734375
20
1.660946875
30
0
0
VERTEX
8
0
10
2.2505437500000003
20
1.625034375
30
0
0
VERTEX
8
0
10
2.19945625
20
1.5955406250000002
30
0
0
VERTEX
8
0
10
2.144959375
20
1.5729656250000001
30
0
0
VERTEX
8
0
10
2.0879781250000002
20
1.5577
30
0
0
VERTEX
8
0
10
2.0294937500000003
20
1.55
30
0
0
VERTEX
8
0
10
1.9705062500000001
20
1.55
30
0
0
VERTEX
8
0
10
1.912021875
20
1.5577
30
0
0
VERTEX
8
0
10
1.855040625
20
1.5729656250000001
30
0
0
VERTEX
8
0
10
1.80054375
20
1.5955406250000002
30
0
0
VERTEX
8
0
10
1.7494562500000002
20
1.625034375
30
0
0
VERTEX
8
0
10
1.70265625
20
1.660946875
30
0
0
VERTEX
8
0
10
1.660946875
20
1.70265625
30
0
0
VERTEX
8
0
10
1.625034375
20
1.7494562500000002
30
0
0
VERTEX
8
0
10
1.5955406250000002
20
1.80054375
30
0
0
VERTEX
8
0
10
1.5729656250000001
20
1.855040625
30
0
0
VERTEX
8
0
10
1.5577
20
1.912021875
30
0
0
VERTEX
8
0
10
1.55
20
1.9705062500000001
30
0
0
VERTEX
8
0
10
1.55
20
2.0294937500000003
30
0
0
VERTEX
8
0
10
1.5577
20
2.0879781250000002
30
0
0
VERTEX
8
0
10
1.5729656250000001
20
2.144959375
30
0
0
VERTEX
8
0
10
1.5955406250000002
20
2.19945625
30
0
0
VERTEX
8
0
10
1.625034375
20
2.2505437500000003
30
0
0
VERTEX
8
0
10
1.660946875
20
2.29734375
30
0
0
VERTEX
8
0
10
1.70265625
20
2.339053125
30
0
0
VERTEX
8
0
10
1.7494562500000002
20
2.374965625
30
0
0
VERTEX
8
0
10
1.80054375
20
2.404459375
30
0
0
VERTEX
8
0
10
1.855040625
20
2.4270343750000003
30
0
0
VERTEX
8
0
10
1.912021875
20
2.4423
30
0
0
VERTEX
8
0
10
1.9705062500000001
20
2.45
30
0
0
VERTEX
8
0
10
2.0294937500000003
20
2.45
30
0
0
VERTEX
8
0
10
2.0879781250000002
20
2.4423
30
0
0
VERTEX
8
0
10
2.144959375
20
2.4270343750000003
30
0
0
VERTEX
8
0
10
2.19945625
20
2.404459375
30
0
0
VERTEX
8
0
10
2.2505437500000003
20
2.374965625
30
0
0
VERTEX
8
0
10
2.29734375
20
2.339053125
30
0
0
VERTEX
8
0
10
2.339053125
20
2.29734375
30
0
0
VERTEX
8
0
10
2.374965625
20
2.2505437500000003
30
0
0
VERTEX
8
0
10
2.404459375
20
2.19945625
30
0
0
VERTEX
8
0
10
2.4270343750000003
20
2.144959375
30
0
0
VERTEX
8
0
10
2.4423
20
2.0879781250000002
30
0
0
VERTEX
8
0
10
2.45
20
2.0294937500000003
30
0
0
VERTEX
8
0
10
2.45
20
1.9705062500000001
30
0
0
SEQEND
0
POLYLINE
66
1
8
holes
10
0.0
20
0.0
30
0.0
70
1
0
VERTEX
8
0
10
22.450000000000003
20
1.9705062500000001
30
0
0
VERTEX
8
0
10
22.4423
20
1.912021875
30
0
0
VERTEX
8
0
10
22.427034375
20
1.855040625
30
0
0
VERTEX
8
0
10
22.404459375000002
20
1.80054375
30
0
0
VERTEX
8
0
10
22.374965625
20
1.7494562500000002
30
0
0
VERTEX
8
0
10
22.339053125
20
1.70265625
30
0
0
VERTEX
8
0
10
22.29734375
20
1.660946875
30
0
0
VERTEX
8
0
10
22.250543750000002
20
1.625034375
30
0
0
VERTEX
8
0
10
22.19945625
20
1.5955406250000002
30
0
0
VERTEX
8
0
10
22.144959375000003
20
1.5729656250000001
30
0
0
VERTEX
8
0
10
22.087978125
20
1.5577
30
0
0
VERTEX
8
0
10
22.02949375
20
1.55
30
0
0
VERTEX
8
0
10
21.97050625
20
1.55
30
0
0
VERTEX
8
0
10
21.912021875
20
1.5577
30
0
0
VERTEX
8
0
10
21.855040625
20
1.5729656250000001
30
0
0
VERTEX
8
0
10
21.800543750000003
20
1.5955406250000002
30
0
0
VERTEX
8
0
10
21.74945625
20
1.625034375
30
0
0
VERTEX
8
0
10
21.70265625
20
1.660946875
30
0
0
VERTEX
8
0
10
21.660946875
20
1.70265625
30
0
0
VERTEX
8
0
10
21.625034375000002
20
1.7494562500000002
30
0
0
VERTEX
8
0
10
21.595540625
20
1.80054375
30
0
0
VERTEX
8
0
10
21.572965625000002
20
1.855040625
30
0
0
VERTEX
8
0
10
21.5577
20
1.912021875
30
0
0
VERTEX
8
0
10
21.55
20
1.9705062500000001
30
0
0
VERTEX
8
0
10
21.55
20
2.0294937500000003
30
0
0
VERTEX
8
0
10
21.5577
20
2.0879781250000002
30
0
0
VERTEX
8
0
10
21.572965625000002
20
2.144959375
30
0
0
VERTEX
8
0
10
21.595540625
20
2.19945625
30
0
0
VERTEX
8
0
10
21.625034375000002
20
2.2505437500000003
30
0
0
VERTEX
8
0
10
21.660946875
20
2.29734375
30
0
0
VERTEX
8
0
10
21.70265625
20
2.339053125
30
0
0
VERTEX
8
0
10
21.74945625
20
2.374965625
30
0
0
VERTEX
8
0
10
21.800543750000003
20
2.404459375
30
0
0
VERTEX
8
0
10
21.855040625
20
2.4270343750000003
30
0
0
VERTEX
8
0
10
21.912021875
20
2.4423
30
0
0
VERTEX
8
0
10
21.97050625
20
2.45
30
0
0
VERTEX
8
0
10
22.02949375
20
2.45
30
0
0
VERTEX
8
0
10
22.087978125
20
2.4423
30
0
0
VERTEX
8
0
10
22.144959375000003
20
2.4270343750000003
30
0
0
VERTEX
8
0
10
22.19945625
20
2.404459375
30
0
0
VERTEX
8
0
10
22.250543750000002
20
2.374965625
30
0
0
VERTEX
8
0
10
22.29734375
20
2.339053125
30
0
0
VERTEX
8
0
10
22.339053125
20
2.29734375
30
0
0
VERTEX
8
0
10
22.374965625
20
2.2505437500000003
30
0
0
VERTEX
8
0
10
22.404459375000002
20
2.19945625
30
0
0
VERTEX
8
0
10
22.427034375
20
2.144959375
30
0
0
VERTEX
8
0
10
22.4423
20
2.0879781250000002
30
0
0
VERTEX
8
0
10
22.450000000000003
20
2.0294937500000003
30
0
0
VERTEX
8
0
10
22.450000000000003
20
1.9705062500000001
30
0
0
SEQEND
0
POLYLINE
66
1
8
holes
10
0.0
20
0.0
30
0.0
70
1
0
VERTEX
8
0
10
2.45
20
25.97050625
30
0
0
VERTEX
8
0
10
2.4423
20
25.912021875
30
0
0
VERTEX
8
0
10
2.4270343750000003
20
25.855040625
30
0
0
VERTEX
8
0
10
2.404459375
20
25.800543750000003
30
0
0
VERTEX
8
0
10
2.374965625
20
25.74945625
30
0
0
VERTEX
8
0
10
2.339053125
20
25.70265625
30
0
0
VERTEX
8
0
10
2.29734375
20
25.660946875
30
0
0
VERTEX
8
0
10
2.2505437500000003
20
25.625034375000002
30
0
0
VERTEX
8
0
10
2.19945625
20
25.595540625
30
0
0
VERTEX
8
0
10
2.144959375
20
25.572965625000002
30
0
0
VERTEX
8
0
10
2.0879781250000002
20
25.5577
30
0
0
VERTEX
8
0
10
2.0294937500000003
20
25.55
30
0
0
VERTEX
8
0
10
1.9705062500000001
20
25.55
30
0
0
VERTEX
8
0
10
1.912021875
20
25.5577
30
0
0
VERTEX
8
0
10
1.855040625
20
25.572965625000002
30
0
0
VERTEX
8
0
10
1.80054375
20
25.595540625
30
0
0
VERTEX
8
0
10
1.7494562500000002
20
25.625034375000002
30
0
0
VERTEX
8
0
10
1.70265625
20
25.660946875
30
0
0
VERTEX
8
0
10
1.660946875
20
25.70265625
30
0
0
VERTEX
8
0
10
1.625034375
20
25.74945625
30
0
0
VERTEX
8
0
10
1.5955406250000002
20
25.800543750000003
30
0
0
VERTEX
8
0
10
1.5729656250000001
20
25.855040625
30
0
0
VERTEX
8
0
10
1.5577
20
25.912021875
30
0
0
VERTEX
8
0
10
1.55
20
25.97050625
30
0
0
VERTEX
8
0
10
1.55
20
26.02949375
30
0
0
VERTEX
8
0
10
1.5577
20
26.087978125000003
30
0
0
VERTEX
8
0
10
1.5729656250000001
20
26.144959375000003
30
0
0
VERTEX
8
0
10
1.5955406250000002
20
26.19945625
30
0
0
VERTEX
8
0
10
1.625034375
20
26.250543750000002
30
0
0
VERTEX
8
0
10
1.660946875
20
26.29734375
30
0
0
VERTEX
8
0
10
1.70265625
20
26.339053125
30
0
0
VERTEX
8
0
10
1.7494562500000002
20
26.374965625
30
0
0
VERTEX
8
0
10
1.80054375
20
26.404459375000002
30
0
0
VERTEX
8
0
10
1.855040625
20
26.427034375
30
0
0
VERTEX
8
0
10
1.912021875
20
26.442300000000003
30
0
0
VERTEX
8
0
10
1.9705062500000001
20
26.450000000000003
30
0
0
VERTEX
8
0
10
2.0294937500000003
20
26.450000000000003
30
0
0
VERTEX
8
0
10
2.0879781250000002
20
26.442300000000003
30
0
0
VERTEX
8
0
10
2.144959375
20
26.427034375
30
0
0
VERTEX
8
0
10
2.19945625
20
26.404459375000002
30
0
0
VERTEX
8
0
10
2.2505437500000003
20
26.374965625
30
0
0
VERTEX
8
0
10
2.29734375
20
26.339053125
30
0
0
VERTEX
8
0
10
2.339053125
20
26.29734375
30
0
0
VERTEX
8
0
10
2.374965625
20
26.250543750000002
30
0
0
VERTEX
8
0
10
2.404459375
20
26.19945625
30
0
0
VERTEX
8
0
10
2.4270343750000003
20
26.144959375000003
30
0
0
VERTEX
8
0
10
2.4423
20
26.087978125000003
30
0
0
VERTEX
8
0
10
2.45
20
26.02949375
30
0
0
VERTEX
8
0
10
2.45
20
25.97050625
30
0
0
SEQEND
0
POLYLINE
66
1
8
holes
10
0.0
20
0.0
30
0.0
70
1
0
VERTEX
8
0
10
23.450000000000003
20
25.97050625
30
0
0
VERTEX
8
0
10
23.4423
20
25.912021875
30
0
0
VERTEX
8
0
10
23.427034375
20
25.855040625
30
0
0
VERTEX
8
0
10
23.404459375000002
20
25.800543750000003
30
0
0
VERTEX
8
0
10
23.374965625
20
25.74945625
30
0
0
VERTEX
8
0
10
23.339053125
20
25.70265625
30
0
0
VERTEX
8
0
10
23.29734375
20
25.660946875
30
0
0
VERTEX
8
0
10
23.250543750000002
20
25.625034375000002
30
0
0
VERTEX
8
0
10
23.19945625
20
25.595540625
30
0
0
VERTEX
8
0
10
23.144959375000003
20
25.572965625000002
30
0
0
VERTEX
8
0
10
23.087978125
20
25.5577
30
0
0
VERTEX
8
0
10
23.02949375
20
25.55
30
0
0
VERTEX
8
0
10
22.97050625
20
25.55
30
0
0
VERTEX
8
0
10
22.912021875
20
25.5577
30
0
0
VERTEX
8
0
10
22.855040625
20
25.572965625000002
30
0
0
VERTEX
8
0
10
22.800543750000003
20
25.595540625
30
0
0
VERTEX
8
0
10
22.74945625
20
25.625034375000002
30
0
0
VERTEX
8
0
10
22.70265625
20
25.660946875
30
0
0
VERTEX
8
0
10
22.660946875
20
25.70265625
30
0
0
VERTEX
8
0
10
22.625034375000002
20
25.74945625
30
0
0
VERTEX
8
0
10
22.595540625
20
25.800543750000003
30
0
0
VERTEX
8
0
10
22.572965625000002
20
25.855040625
30
0
0
VERTEX
8
0
10
22.5577
20
25.912021875
30
0
0
VERTEX
8
0
10
22.55
20
25.97050625
30
0
0
VERTEX
8
0
10
22.55
20
26.02949375
30
0
0
VERTEX
8
0
10
22.5577
20
26.087978125000003
30
0
0
VERTEX
8
0
10
22.572965625000002
20
26.144959375000003
30
0
0
VERTEX
8
0
10
22.595540625
20
26.19945625
30
0
0
VERTEX
8
0
10
22.625034375000002
20
26.250543750000002
30
0
0
VERTEX
8
0
10
22.660946875
20
26.29734375
30
0
0
VERTEX
8
0
10
22.70265625
20
26.339053125
30
0
0
VERTEX
8
0
10
22.74945625
20
26.374965625
30
0
0
VERTEX
8
0
10
22.800543750000003
20
26.404459375000002
30
0
0
VERTEX
8
0
10
22.855040625
20
26.427034375
30
0
0
VERTEX
8
0
10
22.912021875
20
26.442300000000003
30
0
0
VERTEX
8
0
10
22.97050625
20
26.450000000000003
30
0
0
VERTEX
8
0
10
23.02949375
20
26.450000000000003
30
0
0
VERTEX
8
0
10
23.087978125
20
26.442300000000003
30
0
0
VERTEX
8
0
10
23.144959375000003
20
26.427034375
30
0
0
VERTEX
8
0
10
23.19945625
20
26.404459375000002
30
0
0
VERTEX
8
0
10
23.250543750000002
20
26.374965625
30
0
0
VERTEX
8
0
10
23.29734375
20
26.339053125
30
0
0
VERTEX
8
0
10
23.339053125
20
26.29734375
30
0
0
VERTEX
8
0
10
23.374965625
20
26.250543750000002
30
0
0
VERTEX
8
0
10
23.404459375000002
20
26.19945625
30
0
0
VERTEX
8
0
10
23.427034375
20
26.144959375000003
30
0
0
VERTEX
8
0
10
23.4423
20
26.087978125000003
30
0
0
VERTEX
8
0
10
23.450000000000003
20
26.02949375
30
0
0
VERTEX
8
0
10
23.450000000000003
20
25.97050625
30
0
0
SEQEND
0
POLYLINE
66
1
8
1_copper
10
0.0
20
0.0
30
0.0
70
1
0
VERTEX
8
0
10
13.870000000000001
20
18.380000000000003
30
0
0
VERTEX
8
0
10
13.57
20
18.380000000000003
30
0
0
VERTEX
8
0
10
13.57
20
17.78
30
0
0
VERTEX
8
0
10
13.870000000000001
20
17.78
30
0
0
SEQEND
0
POLYLINE
66
1
8
1_copper
10
0.0
20
0.0
30
0.0
70
1
0
VERTEX
8
0
10
11.370000000000001
20
18.380000000000003
30
0
0
VERTEX
8
0
10
11.07
20
18.380000000000003
30
0
0
VERTEX
8
0
10
11.07
20
17.78
30
0
0
VERTEX
8
0
10
11.370000000000001
20
17.78
30
0
0
SEQEND
0
POLYLINE
66
1
8
1_copper
10
0.0
20
0.0
30
0.0
70
1
0
VERTEX
8
0
10
10.870000000000001
20
18.380000000000003
30
0
0
VERTEX
8
0
10
10.57
20
18.380000000000003
30
0
0
VERTEX
8
0
10
10.57
20
17.78
30
0
0
VERTEX
8
0
10
10.870000000000001
20
17.78
30
0
0
SEQEND
0
POLYLINE
66
1
8
1_copper
10
0.0
20
0.0
30
0.0
70
1
0
VERTEX
8
0
10
10.22
20
17.43
30
0
0
VERTEX
8
0
10
9.620000000000001
20
17.43
30
0
0
VERTEX
8
0
10
9.620000000000001
20
17.130000000000003
30
0
0
VERTEX
8
0
10
10.22
20
17.130000000000003
30
0
0
SEQEND
0
POLYLINE
66
1
8
1_copper
10
0.0
20
0.0
30
0.0
70
1
0
VERTEX
8
0
10
14.82
20
17.43
30
0
0
VERTEX
8
0
10
14.22
20
17.43
30
0
0
VERTEX
8
0
10
14.22
20
17.130000000000003
30
0
0
VERTEX
8
0
10
14.82
20
17.130000000000003
30
0
0
SEQEND
0
POLYLINE
66
1
8
1_copper
10
0.0
20
0.0
30
0.0
70
1
0
VERTEX
8
0
10
10.22
20
16.93
30
0
0
VERTEX
8
0
10
9.620000000000001
20
16.93
30
0
0
VERTEX
8
0
10
9.620000000000001
20
16.630000000000003
30
0
0
VERTEX
8
0
10
10.22
20
16.630000000000003
30
0
0
SEQEND
0
POLYLINE
66
1
8
1_copper
10
0.0
20
0.0
30
0.0
70
1
0
VERTEX
8
0
10
14.82
20
16.93
30
0
0
VERTEX
8
0
10
14.22
20
16.93
30
0
0
VERTEX
8
0
10
14.22
20
16.630000000000003
30
0
0
VERTEX
8
0
10
14.82
20
16.630000000000003
30
0
0
SEQEND
0
POLYLINE
66
1
8
1_copper
10
0.0
20
0.0
30
0.0
70
1
0
VERTEX
8
0
10
14.82
20
16.43
30
0
0
VERTEX
8
0
10
14.22
20
16.43
30
0
0
VERTEX
8
0
10
14.22
20
16.13
30
0
0
VERTEX
8
0
10
14.82
20
16.13
30
0
0
SEQEND
0
POLYLINE
66
1
8
1_copper
10
0.0
20
0.0
30
0.0
70
1
0
VERTEX
8
0
10
14.82
20
15.930000000000001
30
0
0
VERTEX
8
0
10
14.22
20
15.930000000000001
30
0
0
VERTEX
8
0
10
14.22
20
15.63
30
0
0
VERTEX
8
0
10
14.82
20
15.63
30
0
0
SEQEND
0
POLYLINE
66
1
8
1_copper
10
0.0
20
0.0
30
0.0
70
1
0
VERTEX
8
0
10
14.82
20
15.430000000000001
30
0
0
VERTEX
8
0
10
14.22
20
15.430000000000001
30
0
0
VERTEX
8
0
10
14.22
20
15.13
30
0
0
VERTEX
8
0
10
14.82
20
15.13
30
0
0
SEQEND
0
POLYLINE
66
1
8
1_copper
10
0.0
20
0.0
30
0.0
70
1
0
VERTEX
8
0
10
14.82
20
14.930000000000001
30
0
0
VERTEX
8
0
10
14.22
20
14.930000000000001
30
0
0
VERTEX
8
0
10
14.22
20
14.63
30
0
0
VERTEX
8
0
10
14.82
20
14.63
30
0
0
SEQEND
0
POLYLINE
66
1
8
1_copper
10
0.0
20
0.0
30
0.0
70
1
0
VERTEX
8
0
10
14.82
20
14.430000000000001
30
0
0
VERTEX
8
0
10
14.22
20
14.430000000000001
30
0
0
VERTEX
8
0
10
14.22
20
14.13
30
0
0
VERTEX
8
0
10
14.82
20
14.13
30
0
0
SEQEND
0
POLYLINE
66
1
8
1_copper
10
0.0
20
0.0
30
0.0
70
1
0
VERTEX
8
0
10
11.370000000000001
20
13.780000000000001
30
0
0
VERTEX
8
0
10
11.07
20
13.780000000000001
30
0
0
VERTEX
8
0
10
11.07
20
13.180000000000001
30
0
0
VERTEX
8
0
10
11.370000000000001
20
13.180000000000001
30
0
0
SEQEND
0
POLYLINE
66
1
8
1_copper
10
0.0
20
0.0
30
0.0
70
1
0
VERTEX
8
0
10
11.870000000000001
20
13.780000000000001
30
0
0
VERTEX
8
0
10
11.57
20
13.780000000000001
30
0
0
VERTEX
8
0
10
11.57
20
13.180000000000001
30
0
0
VERTEX
8
0
10
11.870000000000001
20
13.180000000000001
30
0
0
SEQEND
0
POLYLINE
66
1
8
1_copper
10
0.0
20
0.0
30
0.0
70
1
0
VERTEX
8
0
10
12.370000000000001
20
13.780000000000001
30
0
0
VERTEX
8
0
10
12.07
20
13.780000000000001
30
0
0
VERTEX
8
0
10
12.07
20
13.180000000000001
30
0
0
VERTEX
8
0
10
12.370000000000001
20
13.180000000000001
30
0
0
SEQEND
0
POLYLINE
66
1
8
1_copper
10
0.0
20
0.0
30
0.0
70
1
0
VERTEX
8
0
10
12.870000000000001
20
13.780000000000001
30
0
0
VERTEX
8
0
10
12.57
20
13.780000000000001
30
0
0
VERTEX
8
0
10
12.57
20
13.180000000000001
30
0
0
VERTEX
8
0
10
12.870000000000001
20
13.180000000000001
30
0
0
SEQEND
0
POLYLINE
66
1
8
1_copper
10
0.0
20
0.0
30
0.0
70
1
0
VERTEX
8
0
10
13.370000000000001
20
13.780000000000001
30
0
0
VERTEX
8
0
10
13.07
20
13.780000000000001
30
0
0
VERTEX
8
0
10
13.07
20
13.180000000000001
30
0
0
VERTEX
8
0
10
13.370000000000001
20
13.180000000000001
30
0
0
SEQEND
0
POLYLINE
66
1
8
1_copper
10
0.0
20
0.0
30
0.0
70
1
0
VERTEX
8
0
10
13.870000000000001
20
13.780000000000001
30
0
0
VERTEX
8
0
10
13.57
20
13.780000000000001
30
0
0
VERTEX
8
0
10
13.57
20
13.180000000000001
30
0
0
VERTEX
8
0
10
13.870000000000001
20
13.180000000000001
30
0
0
SEQEND
0
POLYLINE
66
1
8
1_copper
10
0.0
20
0.0
30
0.0
70
1
0
VERTEX
8
0
10
9.816375
20
4.681996875
30
0
0
VERTEX
8
0
10
9.827515625
20
4.681996875
30
0
42
0.3817188877568665
0
VERTEX
8
0
10
10.374
20
5.228481250000001
30
0
0
VERTEX
8
0
10
10.374
20
6.451515625000001
30
0
0
VERTEX
8
0
10
10.36671875
20
6.5161375
30
0
42
0.797474604648771
0
VERTEX
8
0
10
9.23775
20
6.579540625
30
0
0
VERTEX
8
0
10
9.236715625
20
6.575
30
0
0
VERTEX
8
0
10
9.236715625
20
5.104996875
30
0
0
VERTEX
8
0
10
9.23775
20
5.100456250000001
30
0
42
0.11267188545027708
0
VERTEX
8
0
10
9.362590625000001
20
4.874575
30
0
0
VERTEX
8
0
10
9.372165625000001
20
4.865
30
0
0
VERTEX
8
0
10
8.317925
20
4.865
30
0
0
VERTEX
8
0
10
8.314996875
20
4.862071875
30
0
0
VERTEX
8
0
10
8.314996875
20
4.1579250000000005
30
0
0
VERTEX
8
0
10
8.317925
20
4.154996875
30
0
0
VERTEX
8
0
10
8.839996875
20
4.154996875
30
0
0
SEQEND
0
POLYLINE
66
1
8
1_copper
10
0.0
20
0.0
30
0.0
70
1
0
VERTEX
8
0
10
14.7421375
20
4.689278125
30
0
42
0.2880942803404385
0
VERTEX
8
0
10
15.202246875
20
5.100456250000001
30
0
0
VERTEX
8
0
10
15.20328125
20
5.104996875
30
0
0
VERTEX
8
0
10
15.20328125
20
6.575
30
0
0
VERTEX
8
0
10
15.202246875
20
6.579540625
30
0
42
0.8444245986827701
0
VERTEX
8
0
10
14.065996875000002
20
6.451515625000001
30
0
0
VERTEX
8
0
10
14.065996875000002
20
5.228481250000001
30
0
0
VERTEX
8
0
10
14.073278125
20
5.163859375
30
0
42
0.38171921555766125
0
VERTEX
8
0
10
14.677515625
20
4.681996875
30
0
0
SEQEND
0
POLYLINE
66
1
8
1_copper
10
0.0
20
0.0
30
0.0
70
1
0
VERTEX
8
0
10
13.07
20
6.510000000000001
30
0
0
VERTEX
8
0
10
12.67
20
6.510000000000001
30
0
0
VERTEX
8
0
10
12.67
20
4.76
30
0
0
VERTEX
8
0
10
13.07
20
4.76
30
0
0
SEQEND
0
POLYLINE
66
1
8
1_copper
10
0.0
20
0.0
30
0.0
70
1
0
VERTEX
8
0
10
11.97
20
3.81
30
0
0
VERTEX
8
0
10
10.545
20
3.81
30
0
0
VERTEX
8
0
10
10.545
20
1.31
30
0
0
VERTEX
8
0
10
11.97
20
1.31
30
0
0
SEQEND
0
POLYLINE
66
1
8
1_copper
10
0.0
20
0.0
30
0.0
70
1
0
VERTEX
8
0
10
13.895000000000001
20
3.81
30
0
0
VERTEX
8
0
10
12.47
20
3.81
30
0
0
VERTEX
8
0
10
12.47
20
1.31
30
0
0
VERTEX
8
0
10
13.895000000000001
20
1.31
30
0
0
SEQEND
0
POLYLINE
66
1
8
1_copper
10
0.0
20
0.0
30
0.0
70
1
0
VERTEX
8
0
10
14.60685625
20
1.6148968750000001
30
0
0
VERTEX
8
0
10
14.604871875
20
1.6151187500000002
30
0
0
VERTEX
8
0
10
14.606290625000002
20
1.614621875
30
0
0
SEQEND
0
POLYLINE
66
1
8
16_copper
10
0.0
20
0.0
30
0.0
70
1
0
VERTEX
8
0
10
9.8921375
20
4.6892812500000005
30
0
42
0.3499159660276675
0
VERTEX
8
0
10
10.374
20
5.228484375
30
0
0
VERTEX
8
0
10
10.374
20
6.451515625000001
30
0
0
VERTEX
8
0
10
10.36671875
20
6.5161375
30
0
42
0.8936559700213809
0
VERTEX
8
0
10
9.216000000000001
20
6.451515625000001
30
0
0
VERTEX
8
0
10
9.216000000000001
20
5.228484375
30
0
0
VERTEX
8
0
10
9.223281250000001
20
5.1638625000000005
30
0
42
0.3817205652310537
0
VERTEX
8
0
10
9.827515625
20
4.682
30
0
0
SEQEND
0
POLYLINE
66
1
8
16_copper
10
0.0
20
0.0
30
0.0
70
1
0
VERTEX
8
0
10
14.7421375
20
4.6892812500000005
30
0
42
0.3499159660276675
0
VERTEX
8
0
10
15.224
20
5.228484375
30
0
0
VERTEX
8
0
10
15.224
20
6.451515625000001
30
0
0
VERTEX
8
0
10
15.21671875
20
6.5161375
30
0
42
0.8936559700213809
0
VERTEX
8
0
10
14.066
20
6.451515625000001
30
0
0
VERTEX
8
0
10
14.066
20
5.228484375
30
0
0
VERTEX
8
0
10
14.07328125
20
5.1638625000000005
30
0
42
0.3817205652310537
0
VERTEX
8
0
10
14.677515625
20
4.682
30
0
0
SEQEND
0
POLYLINE
66
1
8
16_copper
10
0.0
20
0.0
30
0.0
70
1
0
VERTEX
8
0
10
9.596334375
20
1.609596875
30
0
42
0.34991502825330106
0
VERTEX
8
0
10
10.099
20
2.17208125
30
0
0
VERTEX
8
0
10
10.099
20
3.4479187500000004
30
0
0
VERTEX
8
0
10
10.091403125000001
20
3.515334375
30
0
42
0.8936544673146728
0
VERTEX
8
0
10
8.891
20
3.4479187500000004
30
0
0
VERTEX
8
0
10
8.891
20
2.17208125
30
0
0
VERTEX
8
0
10
8.898596875
20
2.104665625
30
0
42
0.3817188221789343
0
VERTEX
8
0
10
9.52891875
20
1.602
30
0
0
SEQEND
0
POLYLINE
66
1
8
16_copper
10
0.0
20
0.0
30
0.0
70
1
0
VERTEX
8
0
10
15.046334375
20
1.609596875
30
0
42
0.34991502825330106
0
VERTEX
8
0
10
15.549000000000001
20
2.17208125
30
0
0
VERTEX
8
0
10
15.549000000000001
20
3.4479187500000004
30
0
0
VERTEX
8
0
10
15.541403125
20
3.515334375
30
0
42
0.8936544673146728
0
VERTEX
8
0
10
14.341000000000001
20
3.4479187500000004
30
0
0
VERTEX
8
0
10
14.341000000000001
20
2.17208125
30
0
0
VERTEX
8
0
10
14.348596875
20
2.104665625
30
0
42
0.3817188221789343
0
VERTEX
8
0
10
14.97891875
20
1.602
30
0
0
SEQEND
0
POLYLINE
66
1
8
1_copper
10
0.0
20
0.0
30
0.0
70
1
0
VERTEX
8
0
10
10.22
20
14.930000000000001
30
0
0
VERTEX
8
0
10
9.620000000000001
20
14.930000000000001
30
0
0
VERTEX
8
0
10
9.620000000000001
20
14.63
30
0
0
VERTEX
8
0
10
10.22
20
14.63
30
0
0
SEQEND
0
POLYLINE
66
1
8
1_copper
10
0.0
20
0.0
30
0.0
70
1
0
VERTEX
8
0
10
6.0739406250000005
20
15.628271875000001
30
0
42
0.23316852624764065
0
VERTEX
8
0
10
6.339925
20
15.83236875
30
0
0
VERTEX
8
0
10
6.346234375
20
15.8476
30
0
0
VERTEX
8
0
10
9.255825
20
15.8476
30
0
0
VERTEX
8
0
10
9.3859875
20
15.7174375
30
0
0
VERTEX
8
0
10
9.390425
20
15.713818750000002
30
0
0
VERTEX
8
0
10
9.3943625
20
15.70966875
30
0
42
0.15312467584094633
0
VERTEX
8
0
10
9.478134375
20
15.673603125000001
30
0
0
VERTEX
8
0
10
9.49375
20
15.6728
30
0
0
VERTEX
8
0
10
9.620000000000001
20
15.6728
30
0
0
VERTEX
8
0
10
9.620000000000001
20
15.63
30
0
0
VERTEX
8
0
10
9.893065625
20
15.63
30
0
0
VERTEX
8
0
10
9.893075
20
15.629996875000002
30
0
0
VERTEX
8
0
10
9.923809375000001
20
15.627646875
30
0
0
VERTEX
8
0
10
9.94233125
20
15.63
30
0
0
VERTEX
8
0
10
10.22
20
15.63
30
0
0
VERTEX
8
0
10
10.22
20
15.930000000000001
30
0
0
VERTEX
8
0
10
9.985525
20
15.930000000000001
30
0
0
VERTEX
8
0
10
9.9825625
20
15.9329625
30
0
42
0.17236533787118383
0
VERTEX
8
0
10
9.890415625000001
20
15.976796875000002
30
0
0
VERTEX
8
0
10
9.8748
20
15.9776
30
0
0
VERTEX
8
0
10
9.556875
20
15.9776
30
0
0
VERTEX
8
0
10
9.4267125
20
16.1077625
30
0
0
VERTEX
8
0
10
9.422275
20
16.11138125
30
0
0
VERTEX
8
0
10
9.4183375
20
16.11553125
30
0
42
0.15312467584094633
0
VERTEX
8
0
10
9.334565625
20
16.151596875
30
0
0
VERTEX
8
0
10
9.318950000000001
20
16.1524
30
0
0
VERTEX
8
0
10
6.346234375
20
16.1524
30
0
0
VERTEX
8
0
10
6.339925
20
16.16763125
30
0
42
0.9999999999999999
0
VERTEX
8
0
10
5.660075
20
15.83236875
30
0
0
VERTEX
8
0
10
5.6848625
20
15.789431250000002
30
0
42
0.26794810509221706
0
VERTEX
8
0
10
6.0247875
20
15.6218
30
0
0
SEQEND
0
POLYLINE
66
1
8
1_copper
10
0.0
20
0.0
30
0.0
70
1
0
VERTEX
8
0
10
12.42
20
6.510000000000001
30
0
0
VERTEX
8
0
10
12.3724
20
6.510000000000001
30
0
0
VERTEX
8
0
10
12.3724
20
9.156875000000001
30
0
0
VERTEX
8
0
10
12.862937500000001
20
9.6474125
30
0
42
0.9572325849358252
0
VERTEX
8
0
10
13.167631250000001
20
10.339925000000001
30
0
0
VERTEX
8
0
10
13.121828125
20
10.358896875000001
30
0
42
0.6218383183819439
0
VERTEX
8
0
10
12.641103125
20
9.878171875
30
0
0
VERTEX
8
0
10
12.6474125
20
9.862937500000001
30
0
0
VERTEX
8
0
10
12.1122375
20
9.3277625
30
0
0
VERTEX
8
0
10
12.10861875
20
9.323325
30
0
0
VERTEX
8
0
10
12.10446875
20
9.319387500000001
30
0
42
0.15312467584094633
0
VERTEX
8
0
10
12.068403125000001
20
9.235615625000001
30
0
0
VERTEX
8
0
10
12.0676
20
9.22
30
0
0
VERTEX
8
0
10
12.0676
20
6.510000000000001
30
0
0
VERTEX
8
0
10
12.020000000000001
20
6.510000000000001
30
0
0
VERTEX
8
0
10
12.020000000000001
20
4.76
30
0
0
VERTEX
8
0
10
12.42
20
4.76
30
0
0
SEQEND
0
POLYLINE
66
1
8
16_copper
10
0.0
20
0.0
30
0.0
70
1
0
VERTEX
8
0
10
13.073940625
20
9.628271875000001
30
0
42
0.9999999999999999
0
VERTEX
8
0
10
12.926059375000001
20
10.371728125
30
0
0
VERTEX
8
0
10
12.878171875000001
20
10.358896875000001
30
0
42
0.19891372624170825
0
VERTEX
8
0
10
12.660075
20
10.167631250000001
30
0
0
VERTEX
8
0
10
12.653765625
20
10.1524
30
0
0
VERTEX
8
0
10
6.1524
20
10.1524
30
0
0
VERTEX
8
0
10
6.1524
20
15.653765625
30
0
0
VERTEX
8
0
10
6.16763125
20
15.660075
30
0
42
0.9999999999999999
0
VERTEX
8
0
10
5.8323687500000005
20
16.339925
30
0
0
VERTEX
8
0
10
5.789431250000001
20
16.315137500000002
30
0
42
0.5773507807442162
0
VERTEX
8
0
10
5.8323687500000005
20
15.660075
30
0
0
VERTEX
8
0
10
5.8476
20
15.653765625
30
0
0
VERTEX
8
0
10
5.8476
20
10
30
0
0
VERTEX
8
0
10
5.8479875
20
9.996196875
30
0
0
VERTEX
8
0
10
5.847790625
20
9.992387500000001
30
0
42
0.3701874288596992
0
VERTEX
8
0
10
5.984384375
20
9.848403125
30
0
0
VERTEX
8
0
10
6
20
9.8476
30
0
0
VERTEX
8
0
10
12.653765625
20
9.8476
30
0
0
VERTEX
8
0
10
12.660075
20
9.83236875
30
0
42
0.3033467187980841
0
VERTEX
8
0
10
13.0247875
20
9.6218
30
0
0
SEQEND
0
POLYLINE
66
1
8
1_copper
10
0.0
20
0.0
30
0.0
70
1
0
VERTEX
8
0
10
7.0739406250000005
20
14.628271875000001
30
0
42
0.23316852624764065
0
VERTEX
8
0
10
7.339925
20
14.83236875
30
0
0
VERTEX
8
0
10
7.346234375000001
20
14.8476
30
0
0
VERTEX
8
0
10
9.25895
20
14.8476
30
0
0
VERTEX
8
0
10
9.264646875
20
14.848178125
30
0
0
VERTEX
8
0
10
9.270365625
20
14.848028125
30
0
42
0.1531278540915039
0
VERTEX
8
0
10
9.35510625
20
14.8817625
30
0
0
VERTEX
8
0
10
9.3667125
20
14.8922375
30
0
0
VERTEX
8
0
10
9.556875
20
15.082400000000002
30
0
0
VERTEX
8
0
10
9.8748
20
15.082400000000002
30
0
0
VERTEX
8
0
10
9.880496875
20
15.082978125
30
0
0
VERTEX
8
0
10
9.886215625
20
15.082828125
30
0
42
0.1531278540915039
0
VERTEX
8
0
10
9.97095625
20
15.1165625
30
0
0
VERTEX
8
0
10
9.9825625
20
15.1270375
30
0
0
VERTEX
8
0
10
9.985525
20
15.13
30
0
0
VERTEX
8
0
10
10.22
20
15.13
30
0
0
VERTEX
8
0
10
10.22
20
15.430000000000001
30
0
0
VERTEX
8
0
10
9.944371875
20
15.430000000000001
30
0
0
VERTEX
8
0
10
9.939396875
20
15.431159375
30
0
0
VERTEX
8
0
10
9.908584375
20
15.431971875
30
0
0
VERTEX
8
0
10
9.897515625
20
15.430000000000001
30
0
0
VERTEX
8
0
10
9.620000000000001
20
15.430000000000001
30
0
0
VERTEX
8
0
10
9.620000000000001
20
15.3872
30
0
0
VERTEX
8
0
10
9.49375
20
15.3872
30
0
0
VERTEX
8
0
10
9.488053125
20
15.386621875000001
30
0
0
VERTEX
8
0
10
9.482334375
20
15.386771875
30
0
42
0.1531278540915039
0
VERTEX
8
0
10
9.39759375
20
15.353037500000001
30
0
0
VERTEX
8
0
10
9.3859875
20
15.342562500000001
30
0
0
VERTEX
8
0
10
9.195825000000001
20
15.1524
30
0
0
VERTEX
8
0
10
7.346234375000001
20
15.1524
30
0
0
VERTEX
8
0
10
7.339925
20
15.167631250000001
30
0
42
0.9999999999999999
0
VERTEX
8
0
10
6.660075
20
14.83236875
30
0
0
VERTEX
8
0
10
6.6848625
20
14.789431250000002
30
0
42
0.26794810509221706
0
VERTEX
8
0
10
7.0247875
20
14.6218
30
0
0
SEQEND
0
POLYLINE
66
1
8
1_copper
10
0.0
20
0.0
30
0.0
70
1
0
VERTEX
8
0
10
11.770000000000001
20
6.510000000000001
30
0
0
VERTEX
8
0
10
11.7224
20
6.510000000000001
30
0
0
VERTEX
8
0
10
11.7224
20
10.506875
30
0
0
VERTEX
8
0
10
11.862937500000001
20
10.6474125
30
0
42
0.9572325849358252
0
VERTEX
8
0
10
12.167631250000001
20
11.339925000000001
30
0
0
VERTEX
8
0
10
12.121828125
20
11.358896875000001
30
0
42
0.6218383183819439
0
VERTEX
8
0
10
11.641103125
20
10.878171875000001
30
0
0
VERTEX
8
0
10
11.6474125
20
10.862937500000001
30
0
0
VERTEX
8
0
10
11.4622375
20
10.6777625
30
0
0
VERTEX
8
0
10
11.458618750000001
20
10.673325
30
0
0
VERTEX
8
0
10
11.45446875
20
10.669387500000001
30
0
42
0.15312467584094633
0
VERTEX
8
0
10
11.418403125000001
20
10.585615625
30
0
0
VERTEX
8
0
10
11.4176
20
10.57
30
0
0
VERTEX
8
0
10
11.4176
20
6.510000000000001
30
0
0
VERTEX
8
0
10
11.370000000000001
20
6.510000000000001
30
0
0
VERTEX
8
0
10
11.370000000000001
20
4.76
30
0
0
VERTEX
8
0
10
11.770000000000001
20
4.76
30
0
0
SEQEND
0
POLYLINE
66
1
8
16_copper
10
0.0
20
0.0
30
0.0
70
1
0
VERTEX
8
0
10
12.073940625
20
10.628271875000001
30
0
42
0.9999999999999999
0
VERTEX
8
0
10
11.926059375000001
20
11.371728125
30
0
0
VERTEX
8
0
10
11.878171875000001
20
11.358896875000001
30
0
42
0.19891372624170825
0
VERTEX
8
0
10
11.660075
20
11.167631250000001
30
0
0
VERTEX
8
0
10
11.653765625
20
11.1524
30
0
0
VERTEX
8
0
10
7.1524
20
11.1524
30
0
0
VERTEX
8
0
10
7.1524
20
14.653765625
30
0
0
VERTEX
8
0
10
7.16763125
20
14.660075
30
0
42
0.9999999999999999
0
VERTEX
8
0
10
6.8323687500000005
20
15.339925000000001
30
0
0
VERTEX
8
0
10
6.789431250000001
20
15.3151375
30
0
42
0.5773507807442162
0
VERTEX
8
0
10
6.8323687500000005
20
14.660075
30
0
0
VERTEX
8
0
10
6.8476
20
14.653765625
30
0
0
VERTEX
8
0
10
6.8476
20
11
30
0
0
VERTEX
8
0
10
6.8479875
20
10.996196875
30
0
0
VERTEX
8
0
10
6.847790625
20
10.992387500000001
30
0
42
0.3701874288596992
0
VERTEX
8
0
10
6.984384375
20
10.848403125
30
0
0
VERTEX
8
0
10
7
20
10.8476
30
0
0
VERTEX
8
0
10
11.653765625
20
10.8476
30
0
0
VERTEX
8
0
10
11.660075
20
10.83236875
30
0
42
0.3033467187980841
0
VERTEX
8
0
10
12.0247875
20
10.6218
30
0
0
SEQEND
0
POLYLINE
66
1
8
1_copper
10
0.0
20
0.0
30
0.0
70
1
0
VERTEX
8
0
10
10.40795625
20
15.957575
30
0
0
VERTEX
8
0
10
10.40370625
20
15.95148125
30
0
0
VERTEX
8
0
10
10.397553125
20
15.9439375
30
0
42
0.10888730366812867
0
VERTEX
8
0
10
10.3732
20
15.875678125
30
0
0
VERTEX
8
0
10
10.372396875
20
15.860062500000002
30
0
0
VERTEX
8
0
10
10.372396875
20
15.627603125
30
0
0
VERTEX
8
0
10
10.372784375
20
15.623800000000001
30
0
0
VERTEX
8
0
10
10.3725875
20
15.619990625000002
30
0
42
0.3701874288596992
0
VERTEX
8
0
10
10.509181250000001
20
15.476006250000001
30
0
0
VERTEX
8
0
10
10.524796875
20
15.475203125
30
0
0
VERTEX
8
0
10
10.57
20
15.475203125
30
0
0
VERTEX
8
0
10
10.57
20
14.13
30
0
0
VERTEX
8
0
10
13.870000000000001
20
14.13
30
0
0
VERTEX
8
0
10
13.870000000000001
20
17.43
30
0
0
VERTEX
8
0
10
10.57
20
17.43
30
0
0
VERTEX
8
0
10
10.57
20
16.0842625
30
0
0
VERTEX
8
0
10
10.5650125
20
16.08375625
30
0
0
VERTEX
8
0
10
10.564625000000001
20
16.08374375
30
0
0
VERTEX
8
0
10
10.347659375000001
20
16.300709375
30
0
0
VERTEX
8
0
10
10.341925
20
16.305165625
30
0
0
VERTEX
8
0
10
10.336665625
20
16.310212500000002
30
0
42
0.12573445452122514
0
VERTEX
8
0
10
10.290868750000001
20
16.329028125
30
0
0
VERTEX
8
0
10
10.282453125
20
16.329615625000002
30
0
0
VERTEX
8
0
10
10.280440625
20
16.329940625000003
30
0
0
VERTEX
8
0
10
10.279290625
20
16.3298375
30
0
0
VERTEX
8
0
10
10.276950000000001
20
16.330000000000002
30
0
0
VERTEX
8
0
10
10.22
20
16.330000000000002
30
0
0
VERTEX
8
0
10
10.22
20
16.43
30
0
0
VERTEX
8
0
10
9.911418750000001
20
16.43
30
0
0
VERTEX
8
0
10
9.893109375
20
16.448309375
30
0
42
0.16285715334691692
0
VERTEX
8
0
10
9.83631875
20
16.476628125
30
0
0
VERTEX
8
0
10
9.827903125
20
16.477215625
30
0
0
VERTEX
8
0
10
9.825890625000001
20
16.477540625
30
0
0
VERTEX
8
0
10
9.824740625
20
16.4774375
30
0
0
VERTEX
8
0
10
9.8224
20
16.477600000000002
30
0
0
VERTEX
8
0
10
9.55686875
20
16.477600000000002
30
0
0
VERTEX
8
0
10
9.467600000000001
20
16.56686875
30
0
0
VERTEX
8
0
10
9.467600000000001
20
17.493125
30
0
0
VERTEX
8
0
10
9.556875
20
17.5824
30
0
0
VERTEX
8
0
10
9.9174
20
17.5824
30
0
0
VERTEX
8
0
10
9.92461875
20
17.58330625
30
0
0
VERTEX
8
0
10
9.93189375
20
17.58345625
30
0
42
0.12573310967825055
0
VERTEX
8
0
10
9.97758125
20
17.602534375
30
0
0
VERTEX
8
0
10
9.98395625
20
17.608078125000002
30
0
0
VERTEX
8
0
10
9.9856
20
17.609265625000003
30
0
0
VERTEX
8
0
10
9.986337500000001
20
17.61015
30
0
0
VERTEX
8
0
10
9.988109375
20
17.611690625
30
0
0
VERTEX
8
0
10
10.04141875
20
17.665
30
0
0
VERTEX
8
0
10
10.335
20
17.665
30
0
0
VERTEX
8
0
10
10.335
20
18.1
30
0
0
VERTEX
8
0
10
10.2699125
20
18.1
30
0
0
VERTEX
8
0
10
10.2699125
20
18.354459375
30
0
0
VERTEX
8
0
10
10.271046875
20
18.354575
30
0
0
VERTEX
8
0
10
10.276765625000001
20
18.354425000000003
30
0
42
0.1531278540915039
0
VERTEX
8
0
10
10.36150625
20
18.388159375
30
0
0
VERTEX
8
0
10
10.373112500000001
20
18.398634375
30
0
0
VERTEX
8
0
10
10.506871875
20
18.532396875
30
0
0
VERTEX
8
0
10
11.2628
20
18.532396875
30
0
0
VERTEX
8
0
10
11.266603125000001
20
18.532784375000002
30
0
0
VERTEX
8
0
10
11.2704125
20
18.5325875
30
0
42
0.3701874288596992
0
VERTEX
8
0
10
11.414396875000001
20
18.66918125
30
0
0
VERTEX
8
0
10
11.4152
20
18.684796875
30
0
0
VERTEX
8
0
10
11.4152
20
20.139415625
30
0
0
VERTEX
8
0
10
12.650562500000001
20
21.374778125000002
30
0
0
VERTEX
8
0
10
12.65418125
20
21.379215625
30
0
0
VERTEX
8
0
10
12.65833125
20
21.383153125
30
0
42
0.15312467584094633
0
VERTEX
8
0
10
12.694396875
20
21.466925
30
0
0
VERTEX
8
0
10
12.6952
20
21.482540625000002
30
0
0
VERTEX
8
0
10
12.6952
20
22.730621875
30
0
0
VERTEX
8
0
10
12.694621875000001
20
22.736318750000002
30
0
0
VERTEX
8
0
10
12.694771875
20
22.742037500000002
30
0
42
0.1531278540915039
0
VERTEX
8
0
10
12.6610375
20
22.826778125
30
0
0
VERTEX
8
0
10
12.650562500000001
20
22.838384375
30
0
0
VERTEX
8
0
10
12.239812500000001
20
23.249134375
30
0
0
VERTEX
8
0
10
12.236853125000001
20
23.251546875000003
30
0
0
VERTEX
8
0
10
12.23429375
20
23.254384375
30
0
42
0.3701872332645056
0
VERTEX
8
0
10
12.035893750000001
20
23.259609375
30
0
0
VERTEX
8
0
10
12.0242875
20
23.249134375
30
0
0
VERTEX
8
0
10
11.837965625
20
23.062809375
30
0
0
VERTEX
8
0
10
11.501884375000001
20
22.9236
30
0
0
VERTEX
8
0
10
11.1381125
20
22.9236
30
0
0
VERTEX
8
0
10
10.80203125
20
23.062809375
30
0
0
VERTEX
8
0
10
10.544809375
20
23.32003125
30
0
0
VERTEX
8
0
10
10.4056
20
23.656112500000003
30
0
0
VERTEX
8
0
10
10.4056
20
25.543884375
30
0
0
VERTEX
8
0
10
10.544809375
20
25.879965625
30
0
0
VERTEX
8
0
10
10.80203125
20
26.1371875
30
0
0
VERTEX
8
0
10
11.1381125
20
26.276396875
30
0
0
VERTEX
8
0
10
11.501884375000001
20
26.276396875
30
0
0
VERTEX
8
0
10
11.837965625
20
26.1371875
30
0
0
VERTEX
8
0
10
12.0951875
20
25.879965625
30
0
0
VERTEX
8
0
10
12.234396875
20
25.543884375
30
0
0
VERTEX
8
0
10
12.234396875
20
24.179775000000003
30
0
0
VERTEX
8
0
10
12.234746875
20
24.176315625
30
0
0
VERTEX
8
0
10
12.2345875
20
24.173184375
30
0
0
VERTEX
8
0
10
12.234896875
20
24.171143750000002
30
0
0
VERTEX
8
0
10
12.234825
20
24.168359375
30
0
42
0.03191666825172251
0
VERTEX
8
0
10
12.237512500000001
20
24.149109375000002
30
0
0
VERTEX
8
0
10
12.238959375
20
24.144496875
30
0
0
VERTEX
8
0
10
12.239231250000001
20
24.142712500000002
30
0
0
VERTEX
8
0
10
12.239546875
20
24.141859375000003
30
0
0
VERTEX
8
0
10
12.24023125
20
24.138015625
30
0
42
0.1016483397598256
0
VERTEX
8
0
10
12.268559375
20
24.08361875
30
0
0
VERTEX
8
0
10
12.279034375
20
24.0720125
30
0
0
VERTEX
8
0
10
12.6854375
20
23.665609375000003
30
0
0
VERTEX
8
0
10
12.686915625000001
20
23.664406250000003
30
0
0
VERTEX
8
0
10
12.6881625
20
23.662950000000002
30
0
42
0.62297385326033
0
VERTEX
8
0
10
12.944796875
20
23.75775625
30
0
0
VERTEX
8
0
10
12.9456
20
23.773371875000002
30
0
0
VERTEX
8
0
10
12.9456
20
25.543884375
30
0
0
VERTEX
8
0
10
13.084809375
20
25.879965625
30
0
0
VERTEX
8
0
10
13.34203125
20
26.1371875
30
0
0
VERTEX
8
0
10
13.678112500000001
20
26.276396875
30
0
0
VERTEX
8
0
10
14.041884375
20
26.276396875
30
0
0
VERTEX
8
0
10
14.377965625
20
26.1371875
30
0
0
VERTEX
8
0
10
14.6351875
20
25.879965625
30
0
0
VERTEX
8
0
10
14.774396875
20
25.543884375
30
0
0
VERTEX
8
0
10
14.774396875
20
23.656112500000003
30
0
0
VERTEX
8
0
10
14.6351875
20
23.32003125
30
0
0
VERTEX
8
0
10
14.377965625
20
23.062809375
30
0
0
VERTEX
8
0
10
14.258875000000002
20
23.01348125
30
0
0
VERTEX
8
0
10
14.254671875000001
20
23.01121875
30
0
0
VERTEX
8
0
10
14.250200000000001
20
23.009565625
30
0
42
0.25880289426692166
0
VERTEX
8
0
10
14.165600000000001
20
22.888296875
30
0
0
VERTEX
8
0
10
14.164796875
20
22.87268125
30
0
0
VERTEX
8
0
10
14.164796875
20
21.963771875000003
30
0
0
VERTEX
8
0
10
14.164990625000002
20
21.961871875
30
0
0
VERTEX
8
0
10
14.164843750000001
20
21.9599625
30
0
42
0.6229739030167935
0
VERTEX
8
0
10
14.413353125
20
21.845534375
30
0
0
VERTEX
8
0
10
14.424959375
20
21.856009375
30
0
0
VERTEX
8
0
10
15.649134375000001
20
23.080184375
30
0
0
VERTEX
8
0
10
15.651546875000001
20
23.08314375
30
0
0
VERTEX
8
0
10
15.6543875
20
23.08570625
30
0
42
0.33466071807261744
0
VERTEX
8
0
10
15.6701625
20
23.268046875
30
0
0
VERTEX
8
0
10
15.664265625
20
23.278075
30
0
0
VERTEX
8
0
10
15.66170625
20
23.2809125
30
0
0
VERTEX
8
0
10
15.659606250000001
20
23.28410625
30
0
0
VERTEX
8
0
10
15.64913125
20
23.2957125
30
0
0
VERTEX
8
0
10
15.624809375
20
23.32003125
30
0
0
VERTEX
8
0
10
15.485600000000002
20
23.656112500000003
30
0
0
VERTEX
8
0
10
15.485600000000002
20
25.543884375
30
0
0
VERTEX
8
0
10
15.624809375
20
25.879965625
30
0
0
VERTEX
8
0
10
15.88203125
20
26.1371875
30
0
0
VERTEX
8
0
10
16.2181125
20
26.276396875
30
0
0
VERTEX
8
0
10
16.581884375
20
26.276396875
30
0
0
VERTEX
8
0
10
16.917965625
20
26.1371875
30
0
0
VERTEX
8
0
10
17.1751875
20
25.879965625
30
0
0
VERTEX
8
0
10
17.314396875
20
25.543884375
30
0
0
VERTEX
8
0
10
17.314396875
20
23.773371875000002
30
0
0
VERTEX
8
0
10
17.314590625
20
23.771471875
30
0
0
VERTEX
8
0
10
17.314443750000002
20
23.769562500000003
30
0
42
0.6229739030167935
0
VERTEX
8
0
10
17.562953125
20
23.655134375
30
0
0
VERTEX
8
0
10
17.574559375
20
23.665609375000003
30
0
0
VERTEX
8
0
10
17.9809625
20
24.072015625000002
30
0
0
VERTEX
8
0
10
17.98458125
20
24.076453125
30
0
0
VERTEX
8
0
10
17.98873125
20
24.080390625
30
0
42
0.08274346482381152
0
VERTEX
8
0
10
18.014715625
20
24.123221875000002
30
0
0
VERTEX
8
0
10
18.0159375
20
24.127490625
30
0
0
VERTEX
8
0
10
18.0160875
20
24.127793750000002
30
0
0
VERTEX
8
0
10
18.016381250000002
20
24.128925000000002
30
0
0
VERTEX
8
0
10
18.01855625
20
24.133978125000002
30
0
42
0.03191979685548299
0
VERTEX
8
0
10
18.023203125000002
20
24.152853125
30
0
0
VERTEX
8
0
10
18.023459375
20
24.156209375
30
0
0
VERTEX
8
0
10
18.023828125
20
24.157628125000002
30
0
0
VERTEX
8
0
10
18.023953125000002
20
24.1600875
30
0
0
VERTEX
8
0
10
18.024796875
20
24.1641625
30
0
0
VERTEX
8
0
10
18.0256
20
24.179778125000002
30
0
0
VERTEX
8
0
10
18.0256
20
25.543884375
30
0
0
VERTEX
8
0
10
18.164809375
20
25.879965625
30
0
0
VERTEX
8
0
10
18.42203125
20
26.1371875
30
0
0
VERTEX
8
0
10
18.7581125
20
26.276396875
30
0
0
VERTEX
8
0
10
19.121884375
20
26.276396875
30
0
0
VERTEX
8
0
10
19.457965625
20
26.1371875
30
0
0
VERTEX
8
0
10
19.715187500000003
20
25.879965625
30
0
0
VERTEX
8
0
10
19.854396875000003
20
25.543884375
30
0
0
VERTEX
8
0
10
19.854396875000003
20
23.656112500000003
30
0
0
VERTEX
8
0
10
19.715187500000003
20
23.32003125
30
0
0
VERTEX
8
0
10
19.457965625
20
23.062809375
30
0
0
VERTEX
8
0
10
19.121884375
20
22.9236
30
0
0
VERTEX
8
0
10
18.7581125
20
22.9236
30
0
0
VERTEX
8
0
10
18.42203125
20
23.062809375
30
0
0
VERTEX
8
0
10
18.235709375000003
20
23.249134375
30
0
0
VERTEX
8
0
10
18.232753125000002
20
23.251546875000003
30
0
0
VERTEX
8
0
10
18.230190625000002
20
23.254384375
30
0
42
0.3701872332645056
0
VERTEX
8
0
10
18.031790625
20
23.259609375
30
0
0
VERTEX
8
0
10
18.020184375
20
23.249134375
30
0
0
VERTEX
8
0
10
13.569434375
20
18.798381250000002
30
0
0
VERTEX
8
0
10
13.565815625
20
18.79394375
30
0
0
VERTEX
8
0
10
13.561665625
20
18.79000625
30
0
42
0.15067298452116987
0
VERTEX
8
0
10
13.5256
20
18.706234375
30
0
0
VERTEX
8
0
10
13.524796875
20
18.690618750000002
30
0
0
VERTEX
8
0
10
13.524796875
20
18.684796875
30
0
42
0.3844591157128351
0
VERTEX
8
0
10
13.661581250000001
20
18.5332
30
0
0
VERTEX
8
0
10
13.677196875
20
18.532396875
30
0
0
VERTEX
8
0
10
13.933125
20
18.532396875
30
0
0
VERTEX
8
0
10
14.022396875
20
18.443125000000002
30
0
0
VERTEX
8
0
10
14.022396875
20
17.734796875
30
0
0
VERTEX
8
0
10
14.022784375
20
17.73099375
30
0
0
VERTEX
8
0
10
14.0225875
20
17.727184375
30
0
42
0.3701874288596992
0
VERTEX
8
0
10
14.159181250000001
20
17.5832
30
0
0
VERTEX
8
0
10
14.174796875
20
17.582396875
30
0
0
VERTEX
8
0
10
14.883125000000001
20
17.582396875
30
0
0
VERTEX
8
0
10
14.972396875000001
20
17.493125
30
0
0
VERTEX
8
0
10
14.972396875000001
20
14.066871875
30
0
0
VERTEX
8
0
10
14.883125000000001
20
13.9776
30
0
0
VERTEX
8
0
10
14.174796875
20
13.9776
30
0
0
VERTEX
8
0
10
14.170993750000001
20
13.9772125
30
0
0
VERTEX
8
0
10
14.167184375000001
20
13.977409375
30
0
42
0.3701874288596992
0
VERTEX
8
0
10
14.023200000000001
20
13.840815625000001
30
0
0
VERTEX
8
0
10
14.022396875
20
13.8252
30
0
0
VERTEX
8
0
10
14.022396875
20
13.117196875000001
30
0
0
VERTEX
8
0
10
14.022784375
20
13.11339375
30
0
0
VERTEX
8
0
10
14.0225875
20
13.109584375
30
0
42
0.3701874288596992
0
VERTEX
8
0
10
14.159181250000001
20
12.9656
30
0
0
VERTEX
8
0
10
14.174796875
20
12.964796875000001
30
0
0
VERTEX
8
0
10
17.345200000000002
20
12.964796875000001
30
0
0
VERTEX
8
0
10
17.349003125
20
12.965184375
30
0
0
VERTEX
8
0
10
17.352812500000002
20
12.964987500000001
30
0
42
0.33469243825036854
0
VERTEX
8
0
10
17.492909375
20
13.082778125
30
0
0
VERTEX
8
0
10
17.495828125
20
13.094028125000001
30
0
0
VERTEX
8
0
10
17.496025
20
13.097843750000001
30
0
0
VERTEX
8
0
10
17.496796875
20
13.10158125
30
0
0
VERTEX
8
0
10
17.497600000000002
20
13.117196875000001
30
0
0
VERTEX
8
0
10
17.497600000000002
20
13.123125
30
0
0
VERTEX
8
0
10
17.586871875
20
13.212396875000001
30
0
0
VERTEX
8
0
10
18.913125
20
13.212396875000001
30
0
0
VERTEX
8
0
10
19.002396875000002
20
13.123125
30
0
0
VERTEX
8
0
10
19.002396875000002
20
12.196871875000001
30
0
0
VERTEX
8
0
10
18.913125
20
12.1076
30
0
0
VERTEX
8
0
10
17.586871875
20
12.1076
30
0
0
VERTEX
8
0
10
17.497600000000002
20
12.196871875000001
30
0
0
VERTEX
8
0
10
17.497600000000002
20
12.2028
30
0
42
0.3844591157128351
0
VERTEX
8
0
10
17.360815625
20
12.354396875
30
0
0
VERTEX
8
0
10
17.345200000000002
20
12.3552
30
0
0
VERTEX
8
0
10
11.616146875
20
12.3552
30
0
0
VERTEX
8
0
10
11.61234375
20
12.354812500000001
30
0
0
VERTEX
8
0
10
11.608534375000001
20
12.355009375
30
0
42
0.3701874288596992
0
VERTEX
8
0
10
11.464550000000001
20
12.218415625
30
0
0
VERTEX
8
0
10
11.463746875
20
12.2028
30
0
0
VERTEX
8
0
10
11.463746875
20
12.03269375
30
0
0
VERTEX
8
0
10
11.269434375000001
20
11.838381250000001
30
0
0
VERTEX
8
0
10
11.265815625
20
11.833943750000001
30
0
0
VERTEX
8
0
10
11.261665625000001
20
11.83000625
30
0
42
0.15312467584094633
0
VERTEX
8
0
10
11.2256
20
11.746234375
30
0
0
VERTEX
8
0
10
11.224796875000001
20
11.730618750000001
30
0
0
VERTEX
8
0
10
11.224796875000001
20
11.281178125
30
0
0
VERTEX
8
0
10
11.22489375
20
11.280221875
30
0
0
VERTEX
8
0
10
11.224809375000001
20
11.279271875000001
30
0
42
0.7736108498856271
0
VERTEX
8
0
10
11.51128125
20
11.208740625
30
0
0
VERTEX
8
0
10
11.517996875
20
11.222859375
30
0
0
VERTEX
8
0
10
11.550181250000001
20
11.3005625
30
0
0
VERTEX
8
0
10
11.699434375000001
20
11.449815625000001
30
0
0
VERTEX
8
0
10
11.894456250000001
20
11.530596875
30
0
0
VERTEX
8
0
10
12.105540625
20
11.530596875
30
0
0
VERTEX
8
0
10
12.3005625
20
11.449815625000001
30
0
0
VERTEX
8
0
10
12.449815625000001
20
11.3005625
30
0
0
VERTEX
8
0
10
12.530596875
20
11.105540625
30
0
0
VERTEX
8
0
10
12.530596875
20
10.894456250000001
30
0
0
VERTEX
8
0
10
12.449815625000001
20
10.699434375000001
30
0
0
VERTEX
8
0
10
12.3005625
20
10.55018125
30
0
0
VERTEX
8
0
10
12.105540625
20
10.4694
30
0
0
VERTEX
8
0
10
12.027196875000001
20
10.4694
30
0
42
0.3844591157128351
0
VERTEX
8
0
10
11.8756
20
10.332615625
30
0
0
VERTEX
8
0
10
11.874796875000001
20
10.317
30
0
0
VERTEX
8
0
10
11.874796875000001
20
9.673771875
30
0
0
VERTEX
8
0
10
11.874990625
20
9.671871875
30
0
0
VERTEX
8
0
10
11.87484375
20
9.6699625
30
0
42
0.6229739030167935
0
VERTEX
8
0
10
12.123353125000001
20
9.555534375
30
0
0
VERTEX
8
0
10
12.134959375000001
20
9.566009375
30
0
0
VERTEX
8
0
10
12.4247625
20
9.855815625
30
0
0
VERTEX
8
0
10
12.428381250000001
20
9.860253125
30
0
0
VERTEX
8
0
10
12.43253125
20
9.864190625
30
0
42
0.15312467584094633
0
VERTEX
8
0
10
12.468596875000001
20
9.947962500000001
30
0
0
VERTEX
8
0
10
12.4694
20
9.963578125
30
0
0
VERTEX
8
0
10
12.4694
20
10.105540625
30
0
0
VERTEX
8
0
10
12.550181250000001
20
10.3005625
30
0
0
VERTEX
8
0
10
12.699434375000001
20
10.449815625000001
30
0
0
VERTEX
8
0
10
12.894456250000001
20
10.530596875
30
0
0
VERTEX
8
0
10
13.105540625000001
20
10.530596875
30
0
0
VERTEX
8
0
10
13.3005625
20
10.449815625000001
30
0
0
VERTEX
8
0
10
13.449815625000001
20
10.3005625
30
0
0
VERTEX
8
0
10
13.530596875
20
10.105540625
30
0
0
VERTEX
8
0
10
13.530596875
20
9.894456250000001
30
0
0
VERTEX
8
0
10
13.449815625000001
20
9.699434375000001
30
0
0
VERTEX
8
0
10
13.3005625
20
9.55018125
30
0
0
VERTEX
8
0
10
13.105540625000001
20
9.4694
30
0
0
VERTEX
8
0
10
12.963578125000002
20
9.4694
30
0
0
VERTEX
8
0
10
12.95788125
20
9.468821875
30
0
0
VERTEX
8
0
10
12.9521625
20
9.468971875000001
30
0
42
0.1531278540915039
0
VERTEX
8
0
10
12.867421875
20
9.435237500000001
30
0
0
VERTEX
8
0
10
12.855815625
20
9.4247625
30
0
0
VERTEX
8
0
10
12.569434375
20
9.13838125
30
0
0
VERTEX
8
0
10
12.565815625
20
9.13394375
30
0
0
VERTEX
8
0
10
12.561665625
20
9.130006250000001
30
0
42
0.15312467584094633
0
VERTEX
8
0
10
12.5256
20
9.046234375000001
30
0
0
VERTEX
8
0
10
12.524796875
20
9.03061875
30
0
0
VERTEX
8
0
10
12.524796875
20
6.814796875000001
30
0
0
VERTEX
8
0
10
12.525184375
20
6.8109875
30
0
0
VERTEX
8
0
10
12.5249875
20
6.807184375
30
0
42
0.3701874288596992
0
VERTEX
8
0
10
12.661581250000001
20
6.663200000000001
30
0
0
VERTEX
8
0
10
12.677196875
20
6.662396875000001
30
0
0
VERTEX
8
0
10
13.050062500000001
20
6.662396875000001
30
0
0
VERTEX
8
0
10
13.055759375000001
20
6.662975
30
0
0
VERTEX
8
0
10
13.061478125
20
6.662825000000001
30
0
42
0.1389276581588919
0
VERTEX
8
0
10
13.146218750000001
20
6.6965593750000005
30
0
0
VERTEX
8
0
10
13.157825
20
6.707034375
30
0
0
VERTEX
8
0
10
13.164034375
20
6.71324375
30
0
0
VERTEX
8
0
10
13.221965625000001
20
6.746690625
30
0
0
VERTEX
8
0
10
13.286553125000001
20
6.763996875
30
0
0
VERTEX
8
0
10
13.36758125
20
6.763996875
30
0
0
VERTEX
8
0
10
13.36758125
20
6.510000000000001
30
0
0
VERTEX
8
0
10
13.32
20
6.510000000000001
30
0
0
VERTEX
8
0
10
13.32
20
4.76
30
0
0
VERTEX
8
0
10
13.36758125
20
4.76
30
0
0
VERTEX
8
0
10
13.36758125
20
4.506
30
0
0
VERTEX
8
0
10
13.286553125000001
20
4.506
30
0
0
VERTEX
8
0
10
13.221965625000001
20
4.52330625
30
0
0
VERTEX
8
0
10
13.164034375
20
4.556753125
30
0
0
VERTEX
8
0
10
13.157825
20
4.5629625
30
0
42
0.17236533787118383
0
VERTEX
8
0
10
13.065678125
20
4.606796875000001
30
0
0
VERTEX
8
0
10
13.050062500000001
20
4.607600000000001
30
0
0
VERTEX
8
0
10
10.656875000000001
20
4.607600000000001
30
0
0
VERTEX
8
0
10
10.5625625
20
4.701915625
30
0
0
VERTEX
8
0
10
10.561075
20
4.703128125
30
0
0
VERTEX
8
0
10
10.559834375000001
20
4.704575
30
0
42
0.62297385326033
0
VERTEX
8
0
10
10.3032
20
4.609768750000001
30
0
0
VERTEX
8
0
10
10.302396875000001
20
4.594153125
30
0
0
VERTEX
8
0
10
10.302396875000001
20
4.114796875000001
30
0
0
VERTEX
8
0
10
10.302784375
20
4.1109937500000004
30
0
0
VERTEX
8
0
10
10.302587500000001
20
4.107184375
30
0
42
0.3701874288596992
0
VERTEX
8
0
10
10.43918125
20
3.9632
30
0
0
VERTEX
8
0
10
10.454796875000001
20
3.962396875
30
0
0
VERTEX
8
0
10
12.033121875
20
3.962396875
30
0
0
VERTEX
8
0
10
12.11223125
20
3.883284375
30
0
0
VERTEX
8
0
10
12.1152
20
3.8808625
30
0
0
VERTEX
8
0
10
12.117753125
20
3.8780343750000004
30
0
42
0.3701872332645056
0
VERTEX
8
0
10
12.316153125000001
20
3.872809375
30
0
0
VERTEX
8
0
10
12.327759375000001
20
3.883284375
30
0
0
VERTEX
8
0
10
12.406871875
20
3.962396875
30
0
0
VERTEX
8
0
10
13.9852
20
3.962396875
30
0
0
VERTEX
8
0
10
13.989003125
20
3.962784375
30
0
0
VERTEX
8
0
10
13.992812500000001
20
3.9625875
30
0
42
0.3701874288596992
0
VERTEX
8
0
10
14.136796875
20
4.09918125
30
0
0
VERTEX
8
0
10
14.1376
20
4.114796875000001
30
0
0
VERTEX
8
0
10
14.1376
20
4.450468750000001
30
0
0
VERTEX
8
0
10
14.137406250000002
20
4.452371875
30
0
0
VERTEX
8
0
10
14.137553125
20
4.4542906250000005
30
0
42
0.5452050899658063
0
VERTEX
8
0
10
13.889034375000001
20
4.5686968750000005
30
0
0
VERTEX
8
0
10
13.877425
20
4.558221875
30
0
0
VERTEX
8
0
10
13.875946875
20
4.55674375
30
0
0
VERTEX
8
0
10
13.81803125
20
4.52330625
30
0
0
VERTEX
8
0
10
13.75344375
20
4.506
30
0
0
VERTEX
8
0
10
13.6724125
20
4.506
30
0
0
VERTEX
8
0
10
13.6724125
20
4.76
30
0
0
VERTEX
8
0
10
13.72
20
4.76
30
0
0
VERTEX
8
0
10
13.72
20
5.619475
30
0
0
VERTEX
8
0
10
13.8689625
20
5.7684375
30
0
0
VERTEX
8
0
10
13.872581250000001
20
5.772875
30
0
0
VERTEX
8
0
10
13.87673125
20
5.7768125
30
0
42
0.15312467584094633
0
VERTEX
8
0
10
13.912796875000002
20
5.860584375
30
0
0
VERTEX
8
0
10
13.9136
20
5.8762
30
0
0
VERTEX
8
0
10
13.9136
20
6.737453125
30
0
0
VERTEX
8
0
10
13.921709375
20
6.73879375
30
0
42
0.05604703966926808
0
VERTEX
8
0
10
13.953375000000001
20
6.7513375
30
0
0
VERTEX
8
0
10
13.96485
20
6.759028125
30
0
0
VERTEX
8
0
10
13.97645
20
6.766446875000001
30
0
42
0.09073701305409355
0
VERTEX
8
0
10
14.015859375
20
6.813440625
30
0
0
VERTEX
8
0
10
14.016828125
20
6.815478125
30
0
0
VERTEX
8
0
10
14.017375000000001
20
6.816321875000001
30
0
0
VERTEX
8
0
10
14.018046875000001
20
6.81804375
30
0
0
VERTEX
8
0
10
14.022571875
20
6.827559375000001
30
0
0
VERTEX
8
0
10
14.024953125000001
20
6.833309375000001
30
0
0
VERTEX
8
0
10
14.230690625000001
20
7.039046875
30
0
0
VERTEX
8
0
10
14.499515625
20
7.150396875
30
0
0
VERTEX
8
0
10
14.790481250000001
20
7.150396875
30
0
0
VERTEX
8
0
10
15.05930625
20
7.039046875
30
0
0
VERTEX
8
0
10
15.26504375
20
6.833309375000001
30
0
0
VERTEX
8
0
10
15.269940625
20
6.821484375000001
30
0
42
0.2755507617359125
0
VERTEX
8
0
10
15.395128125000001
20
6.7282
30
0
0
VERTEX
8
0
10
15.41074375
20
6.727396875
30
0
0
VERTEX
8
0
10
16.185196875
20
6.727396875
30
0
0
VERTEX
8
0
10
16.277396875
20
6.635196875
30
0
0
VERTEX
8
0
10
16.277396875
20
4.0948
30
0
0
VERTEX
8
0
10
16.185196875
20
4.0026
30
0
0
VERTEX
8
0
10
15.904796875
20
4.0026
30
0
0
VERTEX
8
0
10
15.900993750000001
20
4.002212500000001
30
0
0
VERTEX
8
0
10
15.897184375
20
4.002409375
30
0
42
0.3701874288596992
0
VERTEX
8
0
10
15.753200000000001
20
3.865815625
30
0
0
VERTEX
8
0
10
15.752396875
20
3.8502
30
0
0
VERTEX
8
0
10
15.752396875
20
2.1184125000000003
30
0
0
VERTEX
8
0
10
15.753668750000001
20
2.1058875
30
0
0
VERTEX
8
0
10
15.754475000000001
20
2.093321875
30
0
0
VERTEX
8
0
10
15.755225000000001
20
2.090578125
30
0
0
VERTEX
8
0
10
15.7555125
20
2.087746875
30
0
0
VERTEX
8
0
10
15.759284375
20
2.075728125
30
0
0
VERTEX
8
0
10
15.760356250000001
20
2.0718
30
0
0
VERTEX
8
0
10
15.753356250000001
20
2.0096625
30
0
42
0.0023015851189857137
0
VERTEX
8
0
10
15.753200000000001
20
2.00821875
30
0
0
VERTEX
8
0
10
15.752396875
20
1.992603125
30
0
0
VERTEX
8
0
10
15.752396875
20
1.9708687500000002
30
0
0
VERTEX
8
0
10
15.753503125
20
1.9599718750000001
30
0
0
VERTEX
8
0
10
15.753965625000001
20
1.9490625000000001
30
0
42
0.009802445333627625
0
VERTEX
8
0
10
15.7555125
20
1.940203125
30
0
0
VERTEX
8
0
10
15.757209375
20
1.9347968750000002
30
0
0
VERTEX
8
0
10
15.755996875000001
20
1.931834375
30
0
0
VERTEX
8
0
10
15.75503125
20
1.9299875000000002
30
0
0
VERTEX
8
0
10
15.754540625
20
1.928271875
30
0
0
VERTEX
8
0
10
15.752703125
20
1.9237781250000001
30
0
0
VERTEX
8
0
10
15.745068750000002
20
1.901965625
30
0
0
VERTEX
8
0
10
15.7429
20
1.8929250000000002
30
0
0
VERTEX
8
0
10
15.740015625000002
20
1.884103125
30
0
0
VERTEX
8
0
10
15.738315625
20
1.873796875
30
0
0
VERTEX
8
0
10
15.737881250000001
20
1.871990625
30
0
0
VERTEX
8
0
10
15.737846875
20
1.8709718750000002
30
0
0
VERTEX
8
0
10
15.737468750000001
20
1.868675
30
0
0
VERTEX
8
0
10
15.732212500000001
20
1.8220093750000002
30
0
0
VERTEX
8
0
10
15.707228125
20
1.7822500000000001
30
0
0
VERTEX
8
0
10
15.703090625000002
20
1.7738968750000002
30
0
0
VERTEX
8
0
10
15.69833125
20
1.76596875
30
0
0
VERTEX
8
0
10
15.694396875
20
1.7563375
30
0
0
VERTEX
8
0
10
15.69355
20
1.754628125
30
0
0
VERTEX
8
0
10
15.693284375000001
20
1.7536125
30
0
0
VERTEX
8
0
10
15.692418750000002
20
1.7514968750000002
30
0
0
VERTEX
8
0
10
15.676915625000001
20
1.7071906250000002
30
0
0
VERTEX
8
0
10
15.643712500000001
20
1.6739875000000002
30
0
0
VERTEX
8
0
10
15.637853125000001
20
1.6668031250000002
30
0
0
VERTEX
8
0
10
15.631421875000001
20
1.660103125
30
0
0
VERTEX
8
0
10
15.625425
20
1.6515656250000001
30
0
0
VERTEX
8
0
10
15.624231250000001
20
1.6501000000000001
30
0
0
VERTEX
8
0
10
15.623750000000001
20
1.6491781250000002
30
0
0
VERTEX
8
0
10
15.6224375
20
1.647309375
30
0
0
VERTEX
8
0
10
15.59745
20
1.6075468750000002
30
0
0
VERTEX
8
0
10
15.5576875
20
1.582559375
30
0
0
VERTEX
8
0
10
15.550384375
20
1.5768656250000002
30
0
0
VERTEX
8
0
10
15.542615625000002
20
1.571759375
30
0
0
VERTEX
8
0
10
15.53485625
20
1.56475625
30
0
0
VERTEX
8
0
10
15.533381250000001
20
1.56360625
30
0
0
VERTEX
8
0
10
15.5327125
20
1.562821875
30
0
0
VERTEX
8
0
10
15.531009375
20
1.561284375
30
0
0
VERTEX
8
0
10
15.49780625
20
1.52808125
30
0
0
VERTEX
8
0
10
15.4535
20
1.512578125
30
0
0
VERTEX
8
0
10
15.445093750000002
20
1.50864375
30
0
0
VERTEX
8
0
10
15.43639375
20
1.505396875
30
0
0
VERTEX
8
0
10
15.4272875
20
1.5003062500000002
30
0
0
VERTEX
8
0
10
15.425584375000001
20
1.4995093750000001
30
0
0
VERTEX
8
0
10
15.424756250000002
20
1.498890625
30
0
0
VERTEX
8
0
10
15.422746875000001
20
1.49776875
30
0
0
VERTEX
8
0
10
15.3829875
20
1.472784375
30
0
0
VERTEX
8
0
10
15.33631875
20
1.467528125
30
0
0
VERTEX
8
0
10
15.327234375000002
20
1.465559375
30
0
0
VERTEX
8
0
10
15.318040625
20
1.46433125
30
0
0
VERTEX
8
0
10
15.308025
20
1.46139375
30
0
0
VERTEX
8
0
10
15.306196875000001
20
1.460996875
30
0
0
VERTEX
8
0
10
15.305256250000001
20
1.4605812500000002
30
0
0
VERTEX
8
0
10
15.303040625000001
20
1.4599312500000001
30
0
0
VERTEX
8
0
10
15.281225000000001
20
1.452296875
30
0
0
VERTEX
8
0
10
15.273140625
20
1.4485125
30
0
0
VERTEX
8
0
10
15.27265625
20
1.4484468750000001
30
0
0
VERTEX
8
0
10
15.2711875
20
1.448015625
30
0
42
0.0342633304104643
0
VERTEX
8
0
10
15.24974375
20
1.451796875
30
0
0
VERTEX
8
0
10
15.242868750000001
20
1.45215
30
0
0
VERTEX
8
0
10
15.240775000000001
20
1.45245625
30
0
0
VERTEX
8
0
10
15.238962500000001
20
1.45235
30
0
0
VERTEX
8
0
10
15.234128125000002
20
1.4526000000000001
30
0
0
VERTEX
8
0
10
15.21239375
20
1.4526000000000001
30
0
42
0.002388891354072833
0
VERTEX
8
0
10
15.2109375
20
1.4525937500000001
30
0
0
VERTEX
8
0
10
15.195334375000002
20
1.451640625
30
0
0
VERTEX
8
0
10
15.129984375000001
20
1.444278125
30
0
0
VERTEX
8
0
10
15.118290625
20
1.4462468750000002
30
0
0
VERTEX
8
0
10
15.1059625
20
1.448796875
30
0
0
VERTEX
8
0
10
15.101921875
20
1.44900625
30
0
0
VERTEX
8
0
10
15.100315625
20
1.449275
30
0
0
VERTEX
8
0
10
15.098165625
20
1.4491968750000002
30
0
0
VERTEX
8
0
10
15.090346875000002
20
1.4496
30
0
0
VERTEX
8
0
10
14.799650000000002
20
1.4496
30
0
0
VERTEX
8
0
10
14.787084375000001
20
1.448321875
30
0
0
VERTEX
8
0
10
14.774553125
20
1.44751875
30
0
0
VERTEX
8
0
10
14.771821875
20
1.446771875
30
0
0
VERTEX
8
0
10
14.768984375
20
1.446484375
30
0
0
VERTEX
8
0
10
14.761440625
20
1.4441187500000001
30
0
0
VERTEX
8
0
10
14.69466875
20
1.451640625
30
0
0
VERTEX
8
0
10
14.6939375
20
1.45165
30
0
0
VERTEX
8
0
10
14.693221875
20
1.451796875
30
0
0
VERTEX
8
0
10
14.67760625
20
1.4526000000000001
30
0
0
VERTEX
8
0
10
14.655868750000002
20
1.4526000000000001
30
0
0
VERTEX
8
0
10
14.644971875000001
20
1.45149375
30
0
0
VERTEX
8
0
10
14.6340625
20
1.45103125
30
0
42
0.009802445333627625
0
VERTEX
8
0
10
14.625203125
20
1.4494843750000002
30
0
0
VERTEX
8
0
10
14.619796875
20
1.4477875
30
0
0
VERTEX
8
0
10
14.616834375
20
1.449
30
0
0
VERTEX
8
0
10
14.614987500000002
20
1.4499656250000001
30
0
0
VERTEX
8
0
10
14.613271875
20
1.45045625
30
0
0
VERTEX
8
0
10
14.608778125
20
1.4522937500000002
30
0
0
VERTEX
8
0
10
14.586965625000001
20
1.459928125
30
0
0
VERTEX
8
0
10
14.577925
20
1.462096875
30
0
0
VERTEX
8
0
10
14.569103125
20
1.4649812500000001
30
0
0
VERTEX
8
0
10
14.558796875
20
1.4666812500000002
30
0
0
VERTEX
8
0
10
14.556990625000001
20
1.4671156250000001
30
0
0
VERTEX
8
0
10
14.555971875000001
20
1.4671500000000002
30
0
0
VERTEX
8
0
10
14.553675
20
1.467528125
30
0
0
VERTEX
8
0
10
14.5070125
20
1.472784375
30
0
0
VERTEX
8
0
10
14.467243750000002
20
1.497771875
30
0
0
VERTEX
8
0
10
14.458934375
20
1.5018843750000002
30
0
0
VERTEX
8
0
10
14.450968750000001
20
1.5066656250000001
30
0
0
VERTEX
8
0
10
14.441287500000001
20
1.510621875
30
0
0
VERTEX
8
0
10
14.439618750000001
20
1.511446875
30
0
0
VERTEX
8
0
10
14.438628125000001
20
1.51170625
30
0
0
VERTEX
8
0
10
14.436496875000001
20
1.512578125
30
0
0
VERTEX
8
0
10
14.392196875000002
20
1.5280781250000002
30
0
0
VERTEX
8
0
10
14.358993750000002
20
1.561284375
30
0
0
VERTEX
8
0
10
14.3517875
20
1.5671593750000001
30
0
0
VERTEX
8
0
10
14.345103125000001
20
1.573578125
30
0
0
VERTEX
8
0
10
14.33658125
20
1.5795625
30
0
0
VERTEX
8
0
10
14.33510625
20
1.5807656250000002
30
0
0
VERTEX
8
0
10
14.334175
20
1.5812531250000001
30
0
0
VERTEX
8
0
10
14.332309375000001
20
1.5825625
30
0
0
VERTEX
8
0
10
14.284259375000001
20
1.6127562500000001
30
0
42
0.05840878416410458
0
VERTEX
8
0
10
14.2520375
20
1.628071875
30
0
0
VERTEX
8
0
10
14.236990625
20
1.63231875
30
0
0
VERTEX
8
0
10
14.233612500000001
20
1.6330875
30
0
0
VERTEX
8
0
10
14.229325000000001
20
1.633615625
30
0
0
VERTEX
8
0
10
14.226828125
20
1.634271875
30
0
0
VERTEX
8
0
10
14.226056250000001
20
1.6343156250000002
30
0
0
VERTEX
8
0
10
14.222965625
20
1.635115625
30
0
42
0.42892710481060536
0
VERTEX
8
0
10
14.048200000000001
20
1.500103125
30
0
0
VERTEX
8
0
10
14.047396875
20
1.4844875000000002
30
0
0
VERTEX
8
0
10
14.047396875
20
1.2335125
30
0
0
VERTEX
8
0
10
14.04293125
20
1.2249687500000002
30
0
42
0.49808425370369946
0
VERTEX
8
0
10
14.168828125000001
20
1.0168000000000001
30
0
0
VERTEX
8
0
10
14.18444375
20
1.0159968750000001
30
0
0
VERTEX
8
0
10
20.592721875000002
20
1.0159968750000001
30
0
0
VERTEX
8
0
10
20.59556875
20
1.0162875
30
0
0
VERTEX
8
0
10
20.598434375
20
1.016103125
30
0
42
0.4902845189586351
0
VERTEX
8
0
10
20.73875625
20
1.2119875
30
0
0
VERTEX
8
0
10
20.733521875
20
1.22671875
30
0
0
VERTEX
8
0
10
20.534000000000002
20
1.708396875
30
0
0
VERTEX
8
0
10
20.534000000000002
20
2.291603125
30
0
0
VERTEX
8
0
10
20.7571875
20
2.8304218750000003
30
0
0
VERTEX
8
0
10
21.169575000000002
20
3.242809375
30
0
0
VERTEX
8
0
10
21.708393750000003
20
3.465996875
30
0
0
VERTEX
8
0
10
22.291603125
20
3.465996875
30
0
0
VERTEX
8
0
10
22.830421875000003
20
3.242809375
30
0
0
VERTEX
8
0
10
23.242809375
20
2.8304218750000003
30
0
0
VERTEX
8
0
10
23.465996875000002
20
2.291603125
30
0
0
VERTEX
8
0
10
23.465996875000002
20
1.708396875
30
0
0
VERTEX
8
0
10
23.266475
20
1.22671875
30
0
0
VERTEX
8
0
10
23.265653125
20
1.223975
30
0
0
VERTEX
8
0
10
23.2643875
20
1.2214
30
0
42
0.49027822403431187
0
VERTEX
8
0
10
23.391659375
20
1.0168000000000001
30
0
0
VERTEX
8
0
10
23.407275000000002
20
1.0159968750000001
30
0
0
VERTEX
8
0
10
23.8316
20
1.0159968750000001
30
0
0
VERTEX
8
0
10
23.835403125000003
20
1.0163843750000001
30
0
0
VERTEX
8
0
10
23.839212500000002
20
1.0161875
30
0
42
0.3701874288596992
0
VERTEX
8
0
10
23.983196875
20
1.15278125
30
0
0
VERTEX
8
0
10
23.984
20
1.168396875
30
0
0
VERTEX
8
0
10
23.984
20
24.592721875000002
30
0
0
VERTEX
8
0
10
23.983709375
20
24.59556875
30
0
0
VERTEX
8
0
10
23.98389375
20
24.598434375
30
0
42
0.4902845189586351
0
VERTEX
8
0
10
23.788009375
20
24.73875625
30
0
0
VERTEX
8
0
10
23.773278125
20
24.733521875
30
0
0
VERTEX
8
0
10
23.291600000000003
20
24.534000000000002
30
0
0
VERTEX
8
0
10
22.708393750000003
20
24.534000000000002
30
0
0
VERTEX
8
0
10
22.169575000000002
20
24.7571875
30
0
0
VERTEX
8
0
10
21.7571875
20
25.169575000000002
30
0
0
VERTEX
8
0
10
21.534000000000002
20
25.708393750000003
30
0
0
VERTEX
8
0
10
21.534000000000002
20
26.291600000000003
30
0
0
VERTEX
8
0
10
21.733521875
20
26.773278125
30
0
0
VERTEX
8
0
10
21.73434375
20
26.776021875
30
0
0
VERTEX
8
0
10
21.735609375000003
20
26.778596875
30
0
42
0.49027822403431187
0
VERTEX
8
0
10
21.6083375
20
26.983196875
30
0
0
VERTEX
8
0
10
21.592721875000002
20
26.984
30
0
0
VERTEX
8
0
10
3.4072750000000003
20
26.984
30
0
0
VERTEX
8
0
10
3.4044281250000004
20
26.983709375
30
0
0
VERTEX
8
0
10
3.4015625000000003
20
26.98389375
30
0
42
0.4902845189586351
0
VERTEX
8
0
10
3.261240625
20
26.788009375
30
0
0
VERTEX
8
0
10
3.2664750000000002
20
26.773278125
30
0
0
VERTEX
8
0
10
3.465996875
20
26.291600000000003
30
0
0
VERTEX
8
0
10
3.465996875
20
25.708393750000003
30
0
0
VERTEX
8
0
10
3.242809375
20
25.169575000000002
30
0
0
VERTEX
8
0
10
2.8304218750000003
20
24.7571875
30
0
0
VERTEX
8
0
10
2.291603125
20
24.534000000000002
30
0
0
VERTEX
8
0
10
1.708396875
20
24.534000000000002
30
0
0
VERTEX
8
0
10
1.22671875
20
24.733521875
30
0
0
VERTEX
8
0
10
1.223975
20
24.73434375
30
0
0
VERTEX
8
0
10
1.2214
20
24.735609375000003
30
0
42
0.49027822403431187
0
VERTEX
8
0
10
1.0168000000000001
20
24.6083375
30
0
0
VERTEX
8
0
10
1.0159968750000001
20
24.592721875000002
30
0
0
VERTEX
8
0
10
1.0159968750000001
20
3.4072750000000003
30
0
0
VERTEX
8
0
10
1.0162875
20
3.4044281250000004
30
0
0
VERTEX
8
0
10
1.016103125
20
3.4015625000000003
30
0
42
0.4902845189586351
0
VERTEX
8
0
10
1.2119875
20
3.261240625
30
0
0
VERTEX
8
0
10
1.22671875
20
3.2664750000000002
30
0
0
VERTEX
8
0
10
1.708396875
20
3.465996875
30
0
0
VERTEX
8
0
10
2.291603125
20
3.465996875
30
0
0
VERTEX
8
0
10
2.8304218750000003
20
3.242809375
30
0
0
VERTEX
8
0
10
3.242809375
20
2.8304218750000003
30
0
0
VERTEX
8
0
10
3.465996875
20
2.291603125
30
0
0
VERTEX
8
0
10
3.465996875
20
1.708396875
30
0
0
VERTEX
8
0
10
3.2664750000000002
20
1.22671875
30
0
0
VERTEX
8
0
10
3.265653125
20
1.223975
30
0
0
VERTEX
8
0
10
3.2643875
20
1.2214
30
0
42
0.49027822403431187
0
VERTEX
8
0
10
3.391659375
20
1.0168000000000001
30
0
0
VERTEX
8
0
10
3.4072750000000003
20
1.0159968750000001
30
0
0
VERTEX
8
0
10
10.255553125
20
1.0159968750000001
30
0
0
VERTEX
8
0
10
10.25745625
20
1.0161906250000001
30
0
0
VERTEX
8
0
10
10.259378125000001
20
1.0160437500000001
30
0
42
0.4772349560602338
0
VERTEX
8
0
10
10.3926
20
1.234953125
30
0
0
VERTEX
8
0
10
10.3926
20
1.4844875000000002
30
0
0
VERTEX
8
0
10
10.392043750000001
20
1.48995
30
0
0
VERTEX
8
0
10
10.392206250000001
20
1.495453125
30
0
42
0.4212733713381239
0
VERTEX
8
0
10
10.221653125000001
20
1.63575625
30
0
0
VERTEX
8
0
10
10.206253125
20
1.633059375
30
0
0
VERTEX
8
0
10
10.202875
20
1.6322875000000001
30
0
0
VERTEX
8
0
10
10.202234375
20
1.632071875
30
0
0
VERTEX
8
0
10
10.202115625000001
20
1.632053125
30
0
42
0.0025921223895369206
0
VERTEX
8
0
10
10.20061875
20
1.6315250000000001
30
0
0
VERTEX
8
0
10
10.19826875
20
1.6311593750000002
30
0
0
VERTEX
8
0
10
10.186071875
20
1.6266093750000001
30
0
0
VERTEX
8
0
10
10.173675000000001
20
1.62241875
30
0
42
0.006621380951354165
0
VERTEX
8
0
10
10.169390625
20
1.620384375
30
0
0
VERTEX
8
0
10
10.155743750000001
20
1.612759375
30
0
0
VERTEX
8
0
10
10.107693750000001
20
1.58256875
30
0
0
VERTEX
8
0
10
10.100371875
20
1.5768593750000002
30
0
0
VERTEX
8
0
10
10.092612500000001
20
1.571759375
30
0
0
VERTEX
8
0
10
10.084850000000001
20
1.56475625
30
0
0
VERTEX
8
0
10
10.083384375
20
1.5636125
30
0
0
VERTEX
8
0
10
10.082721875
20
1.562834375
30
0
0
VERTEX
8
0
10
10.081003125
20
1.561284375
30
0
0
VERTEX
8
0
10
10.0478
20
1.5280781250000002
30
0
0
VERTEX
8
0
10
10.0035
20
1.512578125
30
0
0
VERTEX
8
0
10
9.9951
20
1.5086468750000002
30
0
0
VERTEX
8
0
10
9.9864
20
1.5054
30
0
0
VERTEX
8
0
10
9.977290625
20
1.500309375
30
0
0
VERTEX
8
0
10
9.975584375
20
1.4995093750000001
30
0
0
VERTEX
8
0
10
9.974753125000001
20
1.498890625
30
0
0
VERTEX
8
0
10
9.972753125
20
1.497771875
30
0
0
VERTEX
8
0
10
9.932984375
20
1.472784375
30
0
0
VERTEX
8
0
10
9.886318750000001
20
1.467528125
30
0
0
VERTEX
8
0
10
9.877234375
20
1.465559375
30
0
0
VERTEX
8
0
10
9.868040625
20
1.46433125
30
0
0
VERTEX
8
0
10
9.858025
20
1.46139375
30
0
0
VERTEX
8
0
10
9.856196875
20
1.460996875
30
0
0
VERTEX
8
0
10
9.85525625
20
1.4605812500000002
30
0
0
VERTEX
8
0
10
9.853040625
20
1.4599312500000001
30
0
0
VERTEX
8
0
10
9.831225
20
1.452296875
30
0
0
VERTEX
8
0
10
9.823140625
20
1.4485125
30
0
0
VERTEX
8
0
10
9.82265625
20
1.4484468750000001
30
0
0
VERTEX
8
0
10
9.8211875
20
1.448015625
30
0
42
0.0342633304104643
0
VERTEX
8
0
10
9.799743750000001
20
1.451796875
30
0
0
VERTEX
8
0
10
9.79286875
20
1.45215
30
0
0
VERTEX
8
0
10
9.790775
20
1.45245625
30
0
0
VERTEX
8
0
10
9.7889625
20
1.45235
30
0
0
VERTEX
8
0
10
9.784128125
20
1.4526000000000001
30
0
0
VERTEX
8
0
10
9.762393750000001
20
1.4526000000000001
30
0
42
0.002388891354072833
0
VERTEX
8
0
10
9.7609375
20
1.4525937500000001
30
0
0
VERTEX
8
0
10
9.745334375
20
1.451640625
30
0
0
VERTEX
8
0
10
9.679984375
20
1.444278125
30
0
0
VERTEX
8
0
10
9.668290625000001
20
1.4462468750000002
30
0
0
VERTEX
8
0
10
9.655962500000001
20
1.448796875
30
0
0
VERTEX
8
0
10
9.651921875000001
20
1.44900625
30
0
0
VERTEX
8
0
10
9.650315625000001
20
1.449275
30
0
0
VERTEX
8
0
10
9.648165625
20
1.4491968750000002
30
0
0
VERTEX
8
0
10
9.640346875
20
1.4496
30
0
0
VERTEX
8
0
10
9.34965
20
1.4496
30
0
0
VERTEX
8
0
10
9.337084375
20
1.448321875
30
0
0
VERTEX
8
0
10
9.324553125000001
20
1.44751875
30
0
0
VERTEX
8
0
10
9.321821875000001
20
1.446771875
30
0
0
VERTEX
8
0
10
9.318984375000001
20
1.446484375
30
0
0
VERTEX
8
0
10
9.311440625000001
20
1.4441187500000001
30
0
0
VERTEX
8
0
10
9.2446625
20
1.451640625
30
0
0
VERTEX
8
0
10
9.243937500000001
20
1.45165
30
0
0
VERTEX
8
0
10
9.24321875
20
1.451796875
30
0
0
VERTEX
8
0
10
9.227603125
20
1.4526000000000001
30
0
0
VERTEX
8
0
10
9.20586875
20
1.4526000000000001
30
0
0
VERTEX
8
0
10
9.194971875
20
1.45149375
30
0
0
VERTEX
8
0
10
9.1840625
20
1.45103125
30
0
42
0.009802445333627625
0
VERTEX
8
0
10
9.175203125000001
20
1.4494843750000002
30
0
0
VERTEX
8
0
10
9.1698
20
1.447790625
30
0
0
VERTEX
8
0
10
9.166881250000001
20
1.448984375
30
0
0
VERTEX
8
0
10
9.16501875
20
1.44995625
30
0
0
VERTEX
8
0
10
9.16328125
20
1.4504531250000001
30
0
0
VERTEX
8
0
10
9.158771875000001
20
1.452296875
30
0
0
VERTEX
8
0
10
9.13695625
20
1.4599312500000001
30
0
0
VERTEX
8
0
10
9.1279125
20
1.4621000000000002
30
0
0
VERTEX
8
0
10
9.119103125
20
1.4649812500000001
30
0
0
VERTEX
8
0
10
9.108815625
20
1.466678125
30
0
0
VERTEX
8
0
10
9.106984375
20
1.46711875
30
0
0
VERTEX
8
0
10
9.10595
20
1.467153125
30
0
0
VERTEX
8
0
10
9.103675
20
1.467528125
30
0
0
VERTEX
8
0
10
9.0570125
20
1.472784375
30
0
0
VERTEX
8
0
10
9.01724375
20
1.497771875
30
0
0
VERTEX
8
0
10
9.008934375
20
1.5018843750000002
30
0
0
VERTEX
8
0
10
9.00096875
20
1.5066656250000001
30
0
0
VERTEX
8
0
10
8.9912875
20
1.510621875
30
0
0
VERTEX
8
0
10
8.98961875
20
1.511446875
30
0
0
VERTEX
8
0
10
8.988628125
20
1.51170625
30
0
0
VERTEX
8
0
10
8.986496875
20
1.512578125
30
0
0
VERTEX
8
0
10
8.942196875
20
1.5280781250000002
30
0
0
VERTEX
8
0
10
8.90899375
20
1.561284375
30
0
0
VERTEX
8
0
10
8.901787500000001
20
1.5671593750000001
30
0
0
VERTEX
8
0
10
8.895103125
20
1.573578125
30
0
0
VERTEX
8
0
10
8.88658125
20
1.5795625
30
0
0
VERTEX
8
0
10
8.88510625
20
1.5807656250000002
30
0
0
VERTEX
8
0
10
8.884175
20
1.5812531250000001
30
0
0
VERTEX
8
0
10
8.882309375
20
1.5825625
30
0
0
VERTEX
8
0
10
8.842546875
20
1.6075468750000002
30
0
0
VERTEX
8
0
10
8.817562500000001
20
1.647309375
30
0
0
VERTEX
8
0
10
8.81186875
20
1.6546125
30
0
0
VERTEX
8
0
10
8.8067625
20
1.6623812500000001
30
0
0
VERTEX
8
0
10
8.799759375
20
1.6701406250000002
30
0
0
VERTEX
8
0
10
8.798609375
20
1.671615625
30
0
0
VERTEX
8
0
10
8.797825
20
1.672284375
30
0
0
VERTEX
8
0
10
8.7962875
20
1.6739875000000002
30
0
0
VERTEX
8
0
10
8.76308125
20
1.70719375
30
0
0
VERTEX
8
0
10
8.747578125
20
1.7514968750000002
30
0
0
VERTEX
8
0
10
8.743646875
20
1.7598968750000001
30
0
0
VERTEX
8
0
10
8.740400000000001
20
1.768596875
30
0
0
VERTEX
8
0
10
8.735309375
20
1.77770625
30
0
0
VERTEX
8
0
10
8.734509375
20
1.7794125
30
0
0
VERTEX
8
0
10
8.733890625
20
1.7802437500000001
30
0
0
VERTEX
8
0
10
8.732771875000001
20
1.7822437500000001
30
0
0
VERTEX
8
0
10
8.707784375000001
20
1.8220125
30
0
0
VERTEX
8
0
10
8.702528125
20
1.8686781250000002
30
0
0
VERTEX
8
0
10
8.700559375000001
20
1.8777625
30
0
0
VERTEX
8
0
10
8.69933125
20
1.8869562500000001
30
0
0
VERTEX
8
0
10
8.69639375
20
1.8969718750000002
30
0
0
VERTEX
8
0
10
8.695996875
20
1.8988
30
0
0
VERTEX
8
0
10
8.69558125
20
1.8997406250000002
30
0
0
VERTEX
8
0
10
8.69493125
20
1.90195625
30
0
0
VERTEX
8
0
10
8.687296875000001
20
1.9237718750000001
30
0
0
VERTEX
8
0
10
8.6835125
20
1.93185625
30
0
0
VERTEX
8
0
10
8.683446875
20
1.9323406250000001
30
0
0
VERTEX
8
0
10
8.683015625000001
20
1.933809375
30
0
42
0.0342633304104643
0
VERTEX
8
0
10
8.686796875
20
1.955253125
30
0
0
VERTEX
8
0
10
8.68715
20
1.962128125
30
0
0
VERTEX
8
0
10
8.68745625
20
1.964221875
30
0
0
VERTEX
8
0
10
8.68735
20
1.966034375
30
0
0
VERTEX
8
0
10
8.6876
20
1.9708687500000002
30
0
0
VERTEX
8
0
10
8.6876
20
1.992603125
30
0
42
0.002388891354072833
0
VERTEX
8
0
10
8.68759375
20
1.9940593750000002
30
0
0
VERTEX
8
0
10
8.686640625
20
2.0096625
30
0
0
VERTEX
8
0
10
8.679759375
20
2.070759375
30
0
0
VERTEX
8
0
10
8.68055625
20
2.0726125
30
0
42
0.05069217212055885
0
VERTEX
8
0
10
8.686796875
20
2.102796875
30
0
0
VERTEX
8
0
10
8.68700625
20
2.10684375
30
0
0
VERTEX
8
0
10
8.687275
20
2.1084468750000003
30
0
0
VERTEX
8
0
10
8.687196875
20
2.11059375
30
0
0
VERTEX
8
0
10
8.6876
20
2.1184125000000003
30
0
0
VERTEX
8
0
10
8.6876
20
3.8502
30
0
0
VERTEX
8
0
10
8.687212500000001
20
3.854003125
30
0
0
VERTEX
8
0
10
8.687409375
20
3.8578125
30
0
42
0.3701874288596992
0
VERTEX
8
0
10
8.550815625
20
4.001796875
30
0
0
VERTEX
8
0
10
8.5352
20
4.0026
30
0
0
VERTEX
8
0
10
8.254800000000001
20
4.0026
30
0
0
VERTEX
8
0
10
8.162600000000001
20
4.0948
30
0
0
VERTEX
8
0
10
8.162600000000001
20
6.635196875
30
0
0
VERTEX
8
0
10
8.254800000000001
20
6.727396875
30
0
0
VERTEX
8
0
10
9.029250000000001
20
6.727396875
30
0
0
VERTEX
8
0
10
9.033996875
20
6.727878125
30
0
0
VERTEX
8
0
10
9.038765625
20
6.72769375
30
0
42
0.15312651774835656
0
VERTEX
8
0
10
9.12391875
20
6.7603687500000005
30
0
0
VERTEX
8
0
10
9.131559375
20
6.7678
30
0
0
VERTEX
8
0
10
9.139671875000001
20
6.774759375
30
0
42
0.058392785871910775
0
VERTEX
8
0
10
9.163334375
20
6.807356250000001
30
0
0
VERTEX
8
0
10
9.17005
20
6.821475
30
0
0
VERTEX
8
0
10
9.17495
20
6.833306250000001
30
0
0
VERTEX
8
0
10
9.380690625
20
7.039046875
30
0
0
VERTEX
8
0
10
9.649515625000001
20
7.150396875
30
0
0
VERTEX
8
0
10
9.940481250000001
20
7.150396875
30
0
0
VERTEX
8
0
10
10.209303125
20
7.039046875
30
0
0
VERTEX
8
0
10
10.355034375
20
6.8933125
30
0
0
VERTEX
8
0
10
10.356521875
20
6.8921
30
0
0
VERTEX
8
0
10
10.3577625
20
6.890653125
30
0
42
0.62297385326033
0
VERTEX
8
0
10
10.614396875
20
6.9854593750000005
30
0
0
VERTEX
8
0
10
10.6152
20
7.001075
30
0
0
VERTEX
8
0
10
10.6152
20
12.046253125
30
0
0
VERTEX
8
0
10
10.650562500000001
20
12.081615625000001
30
0
42
0.17236533787118383
0
VERTEX
8
0
10
10.694396875
20
12.1737625
30
0
0
VERTEX
8
0
10
10.6952
20
12.189378125000001
30
0
0
VERTEX
8
0
10
10.6952
20
12.5428
30
0
0
VERTEX
8
0
10
10.694812500000001
20
12.546603125
30
0
0
VERTEX
8
0
10
10.695009375
20
12.5504125
30
0
42
0.3701874288596992
0
VERTEX
8
0
10
10.558415625
20
12.694396875
30
0
0
VERTEX
8
0
10
10.5428
20
12.6952
30
0
0
VERTEX
8
0
10
8.873743750000001
20
12.6952
30
0
0
VERTEX
8
0
10
8.6952
20
12.873743750000001
30
0
0
VERTEX
8
0
10
8.6952
20
13.542800000000002
30
0
0
VERTEX
8
0
10
8.694812500000001
20
13.546603125
30
0
0
VERTEX
8
0
10
8.695009375
20
13.5504125
30
0
42
0.3701874288596992
0
VERTEX
8
0
10
8.558415625
20
13.694396875
30
0
0
VERTEX
8
0
10
8.5428
20
13.6952
30
0
0
VERTEX
8
0
10
4.87374375
20
13.6952
30
0
0
VERTEX
8
0
10
4.650590625
20
13.918353125000001
30
0
0
VERTEX
8
0
10
4.6505625
20
13.918384375
30
0
0
VERTEX
8
0
10
4.4752
20
14.09374375
30
0
0
VERTEX
8
0
10
4.4752
20
17.726253125
30
0
0
VERTEX
8
0
10
8.4305625
20
21.681615625000003
30
0
0
VERTEX
8
0
10
8.43418125
20
21.686053125
30
0
0
VERTEX
8
0
10
8.438331250000001
20
21.689990625
30
0
42
0.15312467584094633
0
VERTEX
8
0
10
8.474396875
20
21.7737625
30
0
0
VERTEX
8
0
10
8.475200000000001
20
21.789378125000002
30
0
0
VERTEX
8
0
10
8.475200000000001
20
22.87268125
30
0
0
VERTEX
8
0
10
8.474718750000001
20
22.877428125
30
0
0
VERTEX
8
0
10
8.474903125
20
22.882196875
30
0
42
0.2588018256392391
0
VERTEX
8
0
10
8.395240625
20
23.006765625
30
0
0
VERTEX
8
0
10
8.381121875
20
23.01348125
30
0
0
VERTEX
8
0
10
8.26203125
20
23.062809375
30
0
0
VERTEX
8
0
10
8.004809375
20
23.32003125
30
0
0
VERTEX
8
0
10
7.865600000000001
20
23.656112500000003
30
0
0
VERTEX
8
0
10
7.865600000000001
20
25.543884375
30
0
0
VERTEX
8
0
10
8.004809375
20
25.879965625
30
0
0
VERTEX
8
0
10
8.26203125
20
26.1371875
30
0
0
VERTEX
8
0
10
8.598112500000001
20
26.276396875
30
0
0
VERTEX
8
0
10
8.961884375
20
26.276396875
30
0
0
VERTEX
8
0
10
9.297965625
20
26.1371875
30
0
0
VERTEX
8
0
10
9.5551875
20
25.879965625
30
0
0
VERTEX
8
0
10
9.694396875
20
25.543884375
30
0
0
VERTEX
8
0
10
9.694396875
20
23.656112500000003
30
0
0
VERTEX
8
0
10
9.5551875
20
23.32003125
30
0
0
VERTEX
8
0
10
9.297965625
20
23.062809375
30
0
0
VERTEX
8
0
10
9.178875
20
23.01348125
30
0
0
VERTEX
8
0
10
9.174671875
20
23.01121875
30
0
0
VERTEX
8
0
10
9.170200000000001
20
23.009565625
30
0
42
0.25880289426692166
0
VERTEX
8
0
10
9.085600000000001
20
22.888296875
30
0
0
VERTEX
8
0
10
9.084796875
20
22.87268125
30
0
0
VERTEX
8
0
10
9.084796875
20
21.47374375
30
0
0
VERTEX
8
0
10
5.129434375000001
20
17.51838125
30
0
0
VERTEX
8
0
10
5.125815625
20
17.51394375
30
0
0
VERTEX
8
0
10
5.121665625
20
17.51000625
30
0
42
0.15312467584094633
0
VERTEX
8
0
10
5.0856
20
17.426234375
30
0
0
VERTEX
8
0
10
5.084796875
20
17.41061875
30
0
0
VERTEX
8
0
10
5.084796875
20
14.457196875000001
30
0
0
VERTEX
8
0
10
5.085184375
20
14.45339375
30
0
0
VERTEX
8
0
10
5.0849875
20
14.449584375
30
0
42
0.3701874288596992
0
VERTEX
8
0
10
5.22158125
20
14.3056
30
0
0
VERTEX
8
0
10
5.237196875
20
14.304796875000001
30
0
0
VERTEX
8
0
10
6.576896875
20
14.304796875000001
30
0
0
VERTEX
8
0
10
6.578796875
20
14.304990625
30
0
0
VERTEX
8
0
10
6.58070625
20
14.30484375
30
0
42
0.6229739030167935
0
VERTEX
8
0
10
6.695134375
20
14.553353125000001
30
0
0
VERTEX
8
0
10
6.684659375000001
20
14.5649625
30
0
0
VERTEX
8
0
10
6.5501812500000005
20
14.699440625000001
30
0
0
VERTEX
8
0
10
6.4694
20
14.894456250000001
30
0
0
VERTEX
8
0
10
6.4694
20
15.105540625000001
30
0
0
VERTEX
8
0
10
6.5501812500000005
20
15.300556250000001
30
0
0
VERTEX
8
0
10
6.684659375000001
20
15.435034375
30
0
0
VERTEX
8
0
10
6.685871875
20
15.436521875
30
0
0
VERTEX
8
0
10
6.68731875
20
15.437762500000002
30
0
42
0.5841924585013775
0
VERTEX
8
0
10
6.609446875000001
20
15.690896875
30
0
0
VERTEX
8
0
10
6.596296875
20
15.693959375
30
0
0
VERTEX
8
0
10
6.594384375000001
20
15.694009375
30
0
0
VERTEX
8
0
10
6.592512500000001
20
15.694396875
30
0
0
VERTEX
8
0
10
6.576896875
20
15.695200000000002
30
0
0
VERTEX
8
0
10
6.50870625
20
15.695200000000002
30
0
42
0.17236881692202358
0
VERTEX
8
0
10
6.41255
20
15.6610375
30
0
0
VERTEX
8
0
10
6.400943750000001
20
15.650562500000001
30
0
0
VERTEX
8
0
10
6.300562500000001
20
15.550181250000001
30
0
0
VERTEX
8
0
10
6.105540625000001
20
15.4694
30
0
0
VERTEX
8
0
10
5.89445625
20
15.4694
30
0
0
VERTEX
8
0
10
5.699434375
20
15.550181250000001
30
0
0
VERTEX
8
0
10
5.5501812500000005
20
15.699434375000001
30
0
0
VERTEX
8
0
10
5.4694
20
15.894456250000001
30
0
0
VERTEX
8
0
10
5.4694
20
16.105540625
30
0
0
VERTEX
8
0
10
5.5501812500000005
20
16.3005625
30
0
0
VERTEX
8
0
10
5.699434375
20
16.449815625
30
0
0
VERTEX
8
0
10
5.89445625
20
16.530596875
30
0
0
VERTEX
8
0
10
6.105540625000001
20
16.530596875
30
0
0
VERTEX
8
0
10
6.300562500000001
20
16.449815625
30
0
0
VERTEX
8
0
10
6.400943750000001
20
16.349434375
30
0
0
VERTEX
8
0
10
6.4053812500000005
20
16.345815625
30
0
0
VERTEX
8
0
10
6.409318750000001
20
16.341665625
30
0
42
0.15312467584094633
0
VERTEX
8
0
10
6.493090625000001
20
16.305600000000002
30
0
0
VERTEX
8
0
10
6.50870625
20
16.304796875
30
0
0
VERTEX
8
0
10
9.2136
20
16.304796875
30
0
0
VERTEX
8
0
10
9.217403125
20
16.305184375
30
0
0
VERTEX
8
0
10
9.2212125
20
16.3049875
30
0
42
0.050693643595910685
0
VERTEX
8
0
10
9.251684375
20
16.309631250000002
30
0
0
VERTEX
8
0
10
9.26259375
20
16.3136625
30
0
0
VERTEX
8
0
10
9.273675
20
16.3171375
30
0
42
0.14555978209485693
0
VERTEX
8
0
10
9.34676875
20
16.383087500000002
30
0
0
VERTEX
8
0
10
9.351365625
20
16.3937625
30
0
0
VERTEX
8
0
10
9.35350625
20
16.398125
30
0
0
VERTEX
8
0
10
9.444740625
20
16.306890625
30
0
0
VERTEX
8
0
10
9.450475
20
16.302434375
30
0
0
VERTEX
8
0
10
9.455734375
20
16.2973875
30
0
42
0.12573445452122514
0
VERTEX
8
0
10
9.501531250000001
20
16.278571875
30
0
0
VERTEX
8
0
10
9.509946875
20
16.277984375
30
0
0
VERTEX
8
0
10
9.511959375
20
16.277659375000002
30
0
0
VERTEX
8
0
10
9.513109375
20
16.2777625
30
0
0
VERTEX
8
0
10
9.515450000000001
20
16.2776
30
0
0
VERTEX
8
0
10
9.620000000000001
20
16.2776
30
0
0
VERTEX
8
0
10
9.620000000000001
20
16.13
30
0
0
VERTEX
8
0
10
10.235531250000001
20
16.13
30
0
0
SEQEND
0
POLYLINE
66
1
8
1_copper
10
0.0
20
0.0
30
0.0
70
1
0
VERTEX
8
0
10
7.002000000000001
20
25.399434375000002
30
0
42
0.30334709750080463
0
VERTEX
8
0
10
6.4970187500000005
20
26.080321875000003
30
0
0
VERTEX
8
0
10
6.494000000000001
20
26.0812375
30
0
0
VERTEX
8
0
10
6.494000000000001
20
26.347753125
30
0
0
VERTEX
8
0
10
6.630009375
20
26.3035625
30
0
0
VERTEX
8
0
10
6.772496875000001
20
26.230959375
30
0
0
VERTEX
8
0
10
6.9018781250000005
20
26.136959375
30
0
0
VERTEX
8
0
10
7.014959375
20
26.023878125
30
0
0
VERTEX
8
0
10
7.108959375
20
25.894496875
30
0
0
VERTEX
8
0
10
7.1815625
20
25.752009375
30
0
0
VERTEX
8
0
10
7.230978125
20
25.599925000000002
30
0
0
VERTEX
8
0
10
7.239556250000001
20
25.54576875
30
0
0
VERTEX
8
0
10
7.002000000000001
20
25.3082125
30
0
0
SEQEND
0
POLYLINE
66
1
8
1_copper
10
0.0
20
0.0
30
0.0
70
1
0
VERTEX
8
0
10
5.224
20
24.854000000000003
30
0
0
VERTEX
8
0
10
5.224
20
25.441953125
30
0
0
VERTEX
8
0
10
5.24901875
20
25.599925000000002
30
0
0
VERTEX
8
0
10
5.298434375
20
25.752009375
30
0
0
VERTEX
8
0
10
5.3710375
20
25.894496875
30
0
0
VERTEX
8
0
10
5.4650375
20
26.023878125
30
0
0
VERTEX
8
0
10
5.578118750000001
20
26.136959375
30
0
0
VERTEX
8
0
10
5.7075000000000005
20
26.230959375
30
0
0
VERTEX
8
0
10
5.8499875
20
26.3035625
30
0
0
VERTEX
8
0
10
5.9859937500000004
20
26.347753125
30
0
0
VERTEX
8
0
10
5.9859937500000004
20
26.081234375
30
0
0
VERTEX
8
0
10
5.98298125
20
26.080321875000003
30
0
42
0.30334709750080463
0
VERTEX
8
0
10
5.478000000000001
20
25.399434375000002
30
0
0
VERTEX
8
0
10
5.478000000000001
20
24.854000000000003
30
0
0
SEQEND
0
POLYLINE
66
1
8
1_copper
10
0.0
20
0.0
30
0.0
70
1
0
VERTEX
8
0
10
7.002000000000001
20
24.854000000000003
30
0
0
VERTEX
8
0
10
7.002000000000001
20
24.8771625
30
0
0
VERTEX
8
0
10
7.255996875
20
25.131159375000003
30
0
0
VERTEX
8
0
10
7.255996875
20
24.854000000000003
30
0
0
SEQEND
0
POLYLINE
66
1
8
1_copper
10
0.0
20
0.0
30
0.0
70
1
0
VERTEX
8
0
10
5.8499875
20
22.896434375000002
30
0
0
VERTEX
8
0
10
5.7075000000000005
20
22.969037500000002
30
0
0
VERTEX
8
0
10
5.578118750000001
20
23.0630375
30
0
0
VERTEX
8
0
10
5.4650375
20
23.17611875
30
0
0
VERTEX
8
0
10
5.3710375
20
23.305500000000002
30
0
0
VERTEX
8
0
10
5.298434375
20
23.4479875
30
0
0
VERTEX
8
0
10
5.24901875
20
23.600071875
30
0
0
VERTEX
8
0
10
5.224
20
23.758043750000002
30
0
0
VERTEX
8
0
10
5.224
20
24.34599375
30
0
0
VERTEX
8
0
10
5.478000000000001
20
24.34599375
30
0
0
VERTEX
8
0
10
5.478000000000001
20
23.800565625
30
0
0
VERTEX
8
0
10
5.4853375
20
23.726056250000003
30
0
42
0.2767375280948381
0
VERTEX
8
0
10
5.98298125
20
23.119678125
30
0
0
VERTEX
8
0
10
5.9859937500000004
20
23.118765625
30
0
0
VERTEX
8
0
10
5.9859937500000004
20
22.85224375
30
0
0
SEQEND
0
POLYLINE
66
1
8
1_copper
10
0.0
20
0.0
30
0.0
70
1
0
VERTEX
8
0
10
6.494000000000001
20
23.118762500000003
30
0
0
VERTEX
8
0
10
6.4970187500000005
20
23.119678125
30
0
42
0.30334709750080463
0
VERTEX
8
0
10
7.002000000000001
20
23.800565625
30
0
0
VERTEX
8
0
10
7.002000000000001
20
24.34599375
30
0
0
VERTEX
8
0
10
7.25599375
20
24.34599375
30
0
0
VERTEX
8
0
10
7.255996875
20
23.758043750000002
30
0
0
VERTEX
8
0
10
7.230978125
20
23.600071875
30
0
0
VERTEX
8
0
10
7.1815625
20
23.4479875
30
0
0
VERTEX
8
0
10
7.108959375
20
23.305500000000002
30
0
0
VERTEX
8
0
10
7.014959375
20
23.17611875
30
0
0
VERTEX
8
0
10
6.9018781250000005
20
23.0630375
30
0
0
VERTEX
8
0
10
6.772496875000001
20
22.969037500000002
30
0
0
VERTEX
8
0
10
6.630009375
20
22.896434375000002
30
0
0
VERTEX
8
0
10
6.494000000000001
20
22.85224375
30
0
0
SEQEND
0
POLYLINE
66
1
8
1_copper
10
0.0
20
0.0
30
0.0
70
1
0
VERTEX
8
0
10
9.646
20
18.0349125
30
0
0
VERTEX
8
0
10
9.646
20
18.13344375
30
0
0
VERTEX
8
0
10
9.66330625
20
18.19803125
30
0
0
VERTEX
8
0
10
9.696753125
20
18.255962500000003
30
0
0
VERTEX
8
0
10
9.744034375
20
18.30324375
30
0
0
VERTEX
8
0
10
9.801965625000001
20
18.336690625
30
0
0
VERTEX
8
0
10
9.866553125000001
20
18.353996875
30
0
0
VERTEX
8
0
10
9.96508125
20
18.353996875
30
0
0
VERTEX
8
0
10
9.96508125
20
18.1
30
0
0
VERTEX
8
0
10
9.9
20
18.1
30
0
0
VERTEX
8
0
10
9.9
20
18.0349125
30
0
0
SEQEND
0
POLYLINE
66
1
8
1_copper
10
0.0
20
0.0
30
0.0
70
1
0
VERTEX
8
0
10
17.396
20
11.06
30
0
0
VERTEX
8
0
10
17.396
20
11.29344375
30
0
0
VERTEX
8
0
10
17.41330625
20
11.35803125
30
0
0
VERTEX
8
0
10
17.446753125
20
11.415962500000001
30
0
0
VERTEX
8
0
10
17.494034375000002
20
11.46324375
30
0
0
VERTEX
8
0
10
17.551965625
20
11.496690625000001
30
0
0
VERTEX
8
0
10
17.616553125
20
11.513996875
30
0
0
VERTEX
8
0
10
18.049993750000002
20
11.513996875
30
0
0
VERTEX
8
0
10
18.049993750000002
20
11.26
30
0
0
VERTEX
8
0
10
17.650000000000002
20
11.26
30
0
0
VERTEX
8
0
10
17.650000000000002
20
11.06
30
0
0
SEQEND
0
POLYLINE
66
1
8
1_copper
10
0.0
20
0.0
30
0.0
70
1
0
VERTEX
8
0
10
18.85
20
11.06
30
0
0
VERTEX
8
0
10
18.85
20
11.26
30
0
0
VERTEX
8
0
10
18.45
20
11.26
30
0
0
VERTEX
8
0
10
18.45
20
11.513996875
30
0
0
VERTEX
8
0
10
18.88344375
20
11.513996875
30
0
0
VERTEX
8
0
10
18.94803125
20
11.496690625000001
30
0
0
VERTEX
8
0
10
19.005962500000003
20
11.46324375
30
0
0
VERTEX
8
0
10
19.05324375
20
11.415962500000001
30
0
0
VERTEX
8
0
10
19.086690625
20
11.35803125
30
0
0
VERTEX
8
0
10
19.103996875
20
11.29344375
30
0
0
VERTEX
8
0
10
19.103996875
20
11.06
30
0
0
SEQEND
0
POLYLINE
66
1
8
1_copper
10
0.0
20
0.0
30
0.0
70
1
0
VERTEX
8
0
10
17.446753125
20
10.304034375
30
0
0
VERTEX
8
0
10
17.41330625
20
10.361965625
30
0
0
VERTEX
8
0
10
17.396
20
10.426553125
30
0
0
VERTEX
8
0
10
17.396
20
10.65999375
30
0
0
VERTEX
8
0
10
17.650000000000002
20
10.65999375
30
0
0
VERTEX
8
0
10
17.650000000000002
20
10.475525000000001
30
0
0
VERTEX
8
0
10
17.46263125
20
10.28815625
30
0
0
SEQEND
0
POLYLINE
66
1
8
1_copper
10
0.0
20
0.0
30
0.0
70
1
0
VERTEX
8
0
10
18.45
20
10.206000000000001
30
0
0
VERTEX
8
0
10
18.45
20
10.46
30
0
0
VERTEX
8
0
10
18.85
20
10.46
30
0
0
VERTEX
8
0
10
18.85
20
10.65999375
30
0
0
VERTEX
8
0
10
19.10399375
20
10.65999375
30
0
0
VERTEX
8
0
10
19.103996875
20
10.426553125
30
0
0
VERTEX
8
0
10
19.086690625
20
10.361965625
30
0
0
VERTEX
8
0
10
19.05324375
20
10.304034375
30
0
0
VERTEX
8
0
10
19.005962500000003
20
10.256753125000001
30
0
0
VERTEX
8
0
10
18.94803125
20
10.22330625
30
0
0
VERTEX
8
0
10
18.88344375
20
10.206000000000001
30
0
0
SEQEND
0
POLYLINE
66
1
8
1_copper
10
0.0
20
0.0
30
0.0
70
1
0
VERTEX
8
0
10
17.811525
20
10.206000000000001
30
0
0
VERTEX
8
0
10
18.049993750000002
20
10.44446875
30
0
0
VERTEX
8
0
10
18.049993750000002
20
10.205996875
30
0
0
SEQEND
0
POLYLINE
66
1
8
16_copper
10
0.0
20
0.0
30
0.0
70
1
0
VERTEX
8
0
10
6.35194375
20
23.083337500000003
30
0
42
0.3578057741447831
0
VERTEX
8
0
10
7.002000000000001
20
23.800565625
30
0
0
VERTEX
8
0
10
7.002000000000001
20
25.399434375000002
30
0
0
VERTEX
8
0
10
6.9946625000000004
20
25.47394375
30
0
42
0.9063472543261978
0
VERTEX
8
0
10
5.478000000000001
20
25.399434375000002
30
0
0
VERTEX
8
0
10
5.478000000000001
20
23.800565625
30
0
0
VERTEX
8
0
10
5.4853375
20
23.726056250000003
30
0
42
0.38574240611503685
0
VERTEX
8
0
10
6.277434375
20
23.076
30
0
0
SEQEND
0
POLYLINE
66
1
8
1_copper
10
0.0
20
0.0
30
0.0
70
1
0
VERTEX
8
0
10
11.870000000000001
20
18.056659375000002
30
0
0
VERTEX
8
0
10
11.871596875
20
18.064384375
30
0
0
VERTEX
8
0
10
11.8724
20
18.080000000000002
30
0
0
VERTEX
8
0
10
11.8724
20
19.9500375
30
0
0
VERTEX
8
0
10
13.1077625
20
21.1854
30
0
0
VERTEX
8
0
10
13.11138125
20
21.1898375
30
0
0
VERTEX
8
0
10
13.11553125
20
21.193775000000002
30
0
42
0.15312467584094633
0
VERTEX
8
0
10
13.151596875000001
20
21.277546875000002
30
0
0
VERTEX
8
0
10
13.1524
20
21.2931625
30
0
0
VERTEX
8
0
10
13.1524
20
22.92
30
0
0
VERTEX
8
0
10
13.151821875000001
20
22.925696875
30
0
0
VERTEX
8
0
10
13.151971875000001
20
22.931415625
30
0
42
0.1531278540915039
0
VERTEX
8
0
10
13.118237500000001
20
23.01615625
30
0
0
VERTEX
8
0
10
13.1077625
20
23.0277625
30
0
0
VERTEX
8
0
10
12.082
20
24.053525
30
0
0
VERTEX
8
0
10
12.082
20
25.399434375000002
30
0
0
VERTEX
8
0
10
12.0746625
20
25.47394375
30
0
42
0.9063472543261978
0
VERTEX
8
0
10
10.558
20
25.399434375000002
30
0
0
VERTEX
8
0
10
10.558
20
23.800565625
30
0
0
VERTEX
8
0
10
10.5653375
20
23.726056250000003
30
0
42
0.8170792592534726
0
VERTEX
8
0
10
12.058146875
20
23.646328125
30
0
0
VERTEX
8
0
10
12.8476
20
22.856875000000002
30
0
0
VERTEX
8
0
10
12.8476
20
21.3562875
30
0
0
VERTEX
8
0
10
11.6122375
20
20.120925
30
0
0
VERTEX
8
0
10
11.60861875
20
20.1164875
30
0
0
VERTEX
8
0
10
11.60446875
20
20.112550000000002
30
0
42
0.15312467584094633
0
VERTEX
8
0
10
11.568403125
20
20.028778125000002
30
0
0
VERTEX
8
0
10
11.5676
20
20.0131625
30
0
0
VERTEX
8
0
10
11.5676
20
18.080000000000002
30
0
0
VERTEX
8
0
10
11.57
20
18.056378125000002
30
0
0
VERTEX
8
0
10
11.57
20
17.78
30
0
0
VERTEX
8
0
10
11.870000000000001
20
17.78
30
0
0
SEQEND
0
POLYLINE
66
1
8
16_copper
10
0.0
20
0.0
30
0.0
70
1
0
VERTEX
8
0
10
11.43194375
20
23.083337500000003
30
0
42
0.3578057741447831
0
VERTEX
8
0
10
12.082
20
23.800565625
30
0
0
VERTEX
8
0
10
12.082
20
25.399434375000002
30
0
0
VERTEX
8
0
10
12.0746625
20
25.47394375
30
0
42
0.9063472543261978
0
VERTEX
8
0
10
10.558
20
25.399434375000002
30
0
0
VERTEX
8
0
10
10.558
20
23.800565625
30
0
0
VERTEX
8
0
10
10.5653375
20
23.726056250000003
30
0
42
0.38574240611503685
0
VERTEX
8
0
10
11.357434375
20
23.076
30
0
0
SEQEND
0
POLYLINE
66
1
8
1_copper
10
0.0
20
0.0
30
0.0
70
1
0
VERTEX
8
0
10
12.370000000000001
20
18.056659375000002
30
0
0
VERTEX
8
0
10
12.371596875
20
18.064384375
30
0
0
VERTEX
8
0
10
12.3724
20
18.080000000000002
30
0
0
VERTEX
8
0
10
12.3724
20
19.80345625
30
0
0
VERTEX
8
0
10
13.967762500000001
20
21.39881875
30
0
0
VERTEX
8
0
10
13.97138125
20
21.403256250000002
30
0
0
VERTEX
8
0
10
13.975531250000001
20
21.40719375
30
0
42
0.15312467584094633
0
VERTEX
8
0
10
14.011596875
20
21.490965625
30
0
0
VERTEX
8
0
10
14.012400000000001
20
21.50658125
30
0
0
VERTEX
8
0
10
14.012400000000001
20
23.091384375
30
0
0
VERTEX
8
0
10
14.045375
20
23.097943750000002
30
0
42
0.3303552833504715
0
VERTEX
8
0
10
14.622
20
23.800565625
30
0
0
VERTEX
8
0
10
14.622
20
25.399434375000002
30
0
0
VERTEX
8
0
10
14.614662500000001
20
25.47394375
30
0
42
0.9063472543261978
0
VERTEX
8
0
10
13.098
20
25.399434375000002
30
0
0
VERTEX
8
0
10
13.098
20
23.800565625
30
0
0
VERTEX
8
0
10
13.105337500000001
20
23.726056250000003
30
0
42
0.30334643882340373
0
VERTEX
8
0
10
13.674625
20
23.097943750000002
30
0
0
VERTEX
8
0
10
13.707600000000001
20
23.091384375
30
0
0
VERTEX
8
0
10
13.707600000000001
20
21.56970625
30
0
0
VERTEX
8
0
10
12.1122375
20
19.974343750000003
30
0
0
VERTEX
8
0
10
12.10861875
20
19.96990625
30
0
0
VERTEX
8
0
10
12.10446875
20
19.965968750000002
30
0
42
0.15312467584094633
0
VERTEX
8
0
10
12.068403125000001
20
19.882196875
30
0
0
VERTEX
8
0
10
12.0676
20
19.86658125
30
0
0
VERTEX
8
0
10
12.0676
20
18.080000000000002
30
0
0
VERTEX
8
0
10
12.07
20
18.056378125000002
30
0
0
VERTEX
8
0
10
12.07
20
17.78
30
0
0
VERTEX
8
0
10
12.370000000000001
20
17.78
30
0
0
SEQEND
0
POLYLINE
66
1
8
16_copper
10
0.0
20
0.0
30
0.0
70
1
0
VERTEX
8
0
10
13.971943750000001
20
23.083337500000003
30
0
42
0.3578057741447831
0
VERTEX
8
0
10
14.622
20
23.800565625
30
0
0
VERTEX
8
0
10
14.622
20
25.399434375000002
30
0
0
VERTEX
8
0
10
14.614662500000001
20
25.47394375
30
0
42
0.9063472543261978
0
VERTEX
8
0
10
13.098
20
25.399434375000002
30
0
0
VERTEX
8
0
10
13.098
20
23.800565625
30
0
0
VERTEX
8
0
10
13.105337500000001
20
23.726056250000003
30
0
42
0.38574240611503685
0
VERTEX
8
0
10
13.897434375000001
20
23.076
30
0
0
SEQEND
0
POLYLINE
66
1
8
1_copper
10
0.0
20
0.0
30
0.0
70
1
0
VERTEX
8
0
10
12.870000000000001
20
18.056659375000002
30
0
0
VERTEX
8
0
10
12.871596875
20
18.064384375
30
0
0
VERTEX
8
0
10
12.8724
20
18.080000000000002
30
0
0
VERTEX
8
0
10
12.8724
20
19.656875
30
0
0
VERTEX
8
0
10
16.29789375
20
23.08236875
30
0
0
VERTEX
8
0
10
16.362565625000002
20
23.076
30
0
42
0.41421356237309503
0
VERTEX
8
0
10
17.162000000000003
20
23.800565625
30
0
0
VERTEX
8
0
10
17.162000000000003
20
25.399434375000002
30
0
0
VERTEX
8
0
10
17.1546625
20
25.47394375
30
0
42
0.9063472543261978
0
VERTEX
8
0
10
15.638
20
25.399434375000002
30
0
0
VERTEX
8
0
10
15.638
20
23.800565625
30
0
0
VERTEX
8
0
10
15.6453375
20
23.726056250000003
30
0
42
0.19891253782644208
0
VERTEX
8
0
10
15.94553125
20
23.22521875
30
0
0
VERTEX
8
0
10
15.983993750000002
20
23.199518750000003
30
0
0
VERTEX
8
0
10
12.6122375
20
19.827762500000002
30
0
0
VERTEX
8
0
10
12.60861875
20
19.823325
30
0
0
VERTEX
8
0
10
12.60446875
20
19.8193875
30
0
42
0.15312467584094633
0
VERTEX
8
0
10
12.568403125000001
20
19.735615625
30
0
0
VERTEX
8
0
10
12.5676
20
19.720000000000002
30
0
0
VERTEX
8
0
10
12.5676
20
18.080000000000002
30
0
0
VERTEX
8
0
10
12.57
20
18.056378125000002
30
0
0
VERTEX
8
0
10
12.57
20
17.78
30
0
0
VERTEX
8
0
10
12.870000000000001
20
17.78
30
0
0
SEQEND
0
POLYLINE
66
1
8
16_copper
10
0.0
20
0.0
30
0.0
70
1
0
VERTEX
8
0
10
16.51194375
20
23.083337500000003
30
0
42
0.3578057741447831
0
VERTEX
8
0
10
17.162000000000003
20
23.800565625
30
0
0
VERTEX
8
0
10
17.162000000000003
20
25.399434375000002
30
0
0
VERTEX
8
0
10
17.1546625
20
25.47394375
30
0
42
0.9063472543261978
0
VERTEX
8
0
10
15.638
20
25.399434375000002
30
0
0
VERTEX
8
0
10
15.638
20
23.800565625
30
0
0
VERTEX
8
0
10
15.6453375
20
23.726056250000003
30
0
42
0.38574240611503685
0
VERTEX
8
0
10
16.437434375000002
20
23.076
30
0
0
SEQEND
0
POLYLINE
66
1
8
1_copper
10
0.0
20
0.0
30
0.0
70
1
0
VERTEX
8
0
10
13.370000000000001
20
18.056659375000002
30
0
0
VERTEX
8
0
10
13.371596875
20
18.064384375
30
0
0
VERTEX
8
0
10
13.3724
20
18.080000000000002
30
0
0
VERTEX
8
0
10
13.3724
20
18.816875
30
0
0
VERTEX
8
0
10
18.201853125
20
23.646328125
30
0
0
VERTEX
8
0
10
18.221678125
20
23.58098125
30
0
42
0.8206794251183314
0
VERTEX
8
0
10
19.702
20
23.800565625
30
0
0
VERTEX
8
0
10
19.702
20
25.399434375000002
30
0
0
VERTEX
8
0
10
19.6946625
20
25.47394375
30
0
42
0.9063472543261978
0
VERTEX
8
0
10
18.178
20
25.399434375000002
30
0
0
VERTEX
8
0
10
18.178
20
24.053525
30
0
0
VERTEX
8
0
10
13.1122375
20
18.987762500000002
30
0
0
VERTEX
8
0
10
13.10861875
20
18.983325
30
0
0
VERTEX
8
0
10
13.10446875
20
18.9793875
30
0
42
0.15312467584094633
0
VERTEX
8
0
10
13.068403125000001
20
18.895615625
30
0
0
VERTEX
8
0
10
13.0676
20
18.880000000000003
30
0
0
VERTEX
8
0
10
13.0676
20
18.080000000000002
30
0
0
VERTEX
8
0
10
13.07
20
18.056378125000002
30
0
0
VERTEX
8
0
10
13.07
20
17.78
30
0
0
VERTEX
8
0
10
13.370000000000001
20
17.78
30
0
0
SEQEND
0
POLYLINE
66
1
8
16_copper
10
0.0
20
0.0
30
0.0
70
1
0
VERTEX
8
0
10
19.05194375
20
23.083337500000003
30
0
42
0.3578057741447831
0
VERTEX
8
0
10
19.702
20
23.800565625
30
0
0
VERTEX
8
0
10
19.702
20
25.399434375000002
30
0
0
VERTEX
8
0
10
19.6946625
20
25.47394375
30
0
42
0.9063472543261978
0
VERTEX
8
0
10
18.178
20
25.399434375000002
30
0
0
VERTEX
8
0
10
18.178
20
23.800565625
30
0
0
VERTEX
8
0
10
18.1853375
20
23.726056250000003
30
0
42
0.38574240611503685
0
VERTEX
8
0
10
18.977434375
20
23.076
30
0
0
SEQEND
0
POLYLINE
66
1
8
1_copper
10
0.0
20
0.0
30
0.0
70
1
0
VERTEX
8
0
10
11.27033125
20
12.055625000000001
30
0
0
VERTEX
8
0
10
11.274481250000001
20
12.0595625
30
0
42
0.15312467584094633
0
VERTEX
8
0
10
11.310546875
20
12.143334375
30
0
0
VERTEX
8
0
10
11.311350000000001
20
12.15895
30
0
0
VERTEX
8
0
10
11.311350000000001
20
12.5076
30
0
0
VERTEX
8
0
10
17.650000000000002
20
12.5076
30
0
0
VERTEX
8
0
10
17.650000000000002
20
12.26
30
0
0
VERTEX
8
0
10
18.85
20
12.26
30
0
0
VERTEX
8
0
10
18.85
20
13.06
30
0
0
VERTEX
8
0
10
17.650000000000002
20
13.06
30
0
0
VERTEX
8
0
10
17.650000000000002
20
12.8124
30
0
0
VERTEX
8
0
10
11.15895
20
12.8124
30
0
0
VERTEX
8
0
10
11.155146875
20
12.8120125
30
0
0
VERTEX
8
0
10
11.1524
20
12.812156250000001
30
0
0
VERTEX
8
0
10
11.1524
20
12.818950000000001
30
0
42
0.0005204420627480687
0
VERTEX
8
0
10
11.151821875000001
20
12.824646875000001
30
0
0
VERTEX
8
0
10
11.151971875000001
20
12.830365625
30
0
0
VERTEX
8
0
10
11.15026875
20
12.839921875
30
0
0
VERTEX
8
0
10
11.149284375
20
12.849615625
30
0
42
0.12062166783306302
0
VERTEX
8
0
10
11.118237500000001
20
12.915106250000001
30
0
0
VERTEX
8
0
10
11.1077625
20
12.9267125
30
0
0
VERTEX
8
0
10
10.9176
20
13.116875
30
0
0
VERTEX
8
0
10
10.9176
20
13.434800000000001
30
0
0
VERTEX
8
0
10
10.917021875
20
13.440496875000001
30
0
0
VERTEX
8
0
10
10.917171875000001
20
13.446215625
30
0
42
0.11780295312323023
0
VERTEX
8
0
10
10.895021875000001
20
13.51333125
30
0
0
VERTEX
8
0
10
10.89030625
20
13.521828125
30
0
0
VERTEX
8
0
10
10.886587500000001
20
13.5261625
30
0
0
VERTEX
8
0
10
10.883437500000001
20
13.530956250000001
30
0
0
VERTEX
8
0
10
10.8729625
20
13.5425625
30
0
0
VERTEX
8
0
10
10.870000000000001
20
13.545525000000001
30
0
0
VERTEX
8
0
10
10.870000000000001
20
13.780000000000001
30
0
0
VERTEX
8
0
10
10.57
20
13.780000000000001
30
0
0
VERTEX
8
0
10
10.57
20
13.504371875
30
0
0
VERTEX
8
0
10
10.568840625
20
13.499396875
30
0
0
VERTEX
8
0
10
10.568028125
20
13.468584375
30
0
0
VERTEX
8
0
10
10.57
20
13.457515625000001
30
0
0
VERTEX
8
0
10
10.57
20
13.180000000000001
30
0
0
VERTEX
8
0
10
10.6128
20
13.180000000000001
30
0
0
VERTEX
8
0
10
10.6128
20
13.1524
30
0
0
VERTEX
8
0
10
9.1524
20
13.1524
30
0
0
VERTEX
8
0
10
9.1524
20
13.936875
30
0
0
VERTEX
8
0
10
9.343125
20
14.127600000000001
30
0
0
VERTEX
8
0
10
9.92
20
14.127600000000001
30
0
0
VERTEX
8
0
10
9.943621875
20
14.13
30
0
0
VERTEX
8
0
10
10.22
20
14.13
30
0
0
VERTEX
8
0
10
10.22
20
14.430000000000001
30
0
0
VERTEX
8
0
10
9.943340625000001
20
14.430000000000001
30
0
0
VERTEX
8
0
10
9.935615625
20
14.431596875
30
0
0
VERTEX
8
0
10
9.92
20
14.432400000000001
30
0
0
VERTEX
8
0
10
9.280000000000001
20
14.432400000000001
30
0
0
VERTEX
8
0
10
9.274303125000001
20
14.431821875
30
0
0
VERTEX
8
0
10
9.268584375
20
14.431971875
30
0
42
0.1531278540915039
0
VERTEX
8
0
10
9.183843750000001
20
14.3982375
30
0
0
VERTEX
8
0
10
9.1722375
20
14.387762500000001
30
0
0
VERTEX
8
0
10
8.936875
20
14.1524
30
0
0
VERTEX
8
0
10
5.063125
20
14.1524
30
0
0
VERTEX
8
0
10
4.9324
20
14.283125
30
0
0
VERTEX
8
0
10
4.9324
20
17.536875000000002
30
0
0
VERTEX
8
0
10
8.887762500000001
20
21.4922375
30
0
0
VERTEX
8
0
10
8.89138125
20
21.496675
30
0
0
VERTEX
8
0
10
8.895531250000001
20
21.500612500000003
30
0
42
0.15312467584094633
0
VERTEX
8
0
10
8.931596875
20
21.584384375000003
30
0
0
VERTEX
8
0
10
8.932400000000001
20
21.6
30
0
0
VERTEX
8
0
10
8.932400000000001
20
23.091384375
30
0
0
VERTEX
8
0
10
8.965375
20
23.097943750000002
30
0
42
0.3303552833504715
0
VERTEX
8
0
10
9.542
20
23.800565625
30
0
0
VERTEX
8
0
10
9.542
20
25.399434375000002
30
0
0
VERTEX
8
0
10
9.5346625
20
25.47394375
30
0
42
0.9063472543261978
0
VERTEX
8
0
10
8.018
20
25.399434375000002
30
0
0
VERTEX
8
0
10
8.018
20
23.800565625
30
0
0
VERTEX
8
0
10
8.025337500000001
20
23.726056250000003
30
0
42
0.30334643882340373
0
VERTEX
8
0
10
8.594625
20
23.097943750000002
30
0
0
VERTEX
8
0
10
8.627600000000001
20
23.091384375
30
0
0
VERTEX
8
0
10
8.627600000000001
20
21.663125
30
0
0
VERTEX
8
0
10
4.6722375000000005
20
17.7077625
30
0
0
VERTEX
8
0
10
4.66861875
20
17.703325
30
0
0
VERTEX
8
0
10
4.66446875
20
17.6993875
30
0
42
0.15312467584094633
0
VERTEX
8
0
10
4.628403125
20
17.615615625
30
0
0
VERTEX
8
0
10
4.6276
20
17.6
30
0
0
VERTEX
8
0
10
4.6276
20
14.22
30
0
0
VERTEX
8
0
10
4.628178125
20
14.214303125
30
0
0
VERTEX
8
0
10
4.628028125
20
14.208584375000001
30
0
42
0.1531278540915039
0
VERTEX
8
0
10
4.6617625
20
14.12384375
30
0
0
VERTEX
8
0
10
4.6722375000000005
20
14.1122375
30
0
0
VERTEX
8
0
10
4.8922375
20
13.8922375
30
0
0
VERTEX
8
0
10
4.896675
20
13.888618750000001
30
0
0
VERTEX
8
0
10
4.9006125
20
13.88446875
30
0
42
0.15312467584094633
0
VERTEX
8
0
10
4.984384375
20
13.848403125
30
0
0
VERTEX
8
0
10
5
20
13.8476
30
0
0
VERTEX
8
0
10
8.8476
20
13.8476
30
0
0
VERTEX
8
0
10
8.8476
20
13
30
0
0
VERTEX
8
0
10
8.8479875
20
12.996196875
30
0
0
VERTEX
8
0
10
8.847790625
20
12.992387500000001
30
0
42
0.3701874288596992
0
VERTEX
8
0
10
8.984384375000001
20
12.848403125
30
0
0
VERTEX
8
0
10
9
20
12.8476
30
0
0
VERTEX
8
0
10
10.755825
20
12.8476
30
0
0
VERTEX
8
0
10
10.8476
20
12.755825
30
0
0
VERTEX
8
0
10
10.8476
20
12.063125000000001
30
0
0
VERTEX
8
0
10
10.8122375
20
12.0277625
30
0
42
0.17236533787118383
0
VERTEX
8
0
10
10.768403125
20
11.935615625
30
0
0
VERTEX
8
0
10
10.7676
20
11.92
30
0
0
VERTEX
8
0
10
10.7676
20
6.510000000000001
30
0
0
VERTEX
8
0
10
10.72
20
6.510000000000001
30
0
0
VERTEX
8
0
10
10.72
20
4.76
30
0
0
VERTEX
8
0
10
11.120000000000001
20
4.76
30
0
0
VERTEX
8
0
10
11.120000000000001
20
6.510000000000001
30
0
0
VERTEX
8
0
10
11.0724
20
6.510000000000001
30
0
0
VERTEX
8
0
10
11.0724
20
11.856875
30
0
0
VERTEX
8
0
10
11.2667125
20
12.051187500000001
30
0
0
SEQEND
0
POLYLINE
66
1
8
16_copper
10
0.0
20
0.0
30
0.0
70
1
0
VERTEX
8
0
10
8.891943750000001
20
23.083337500000003
30
0
42
0.3578057741447831
0
VERTEX
8
0
10
9.542
20
23.800565625
30
0
0
VERTEX
8
0
10
9.542
20
25.399434375000002
30
0
0
VERTEX
8
0
10
9.5346625
20
25.47394375
30
0
42
0.9063472543261978
0
VERTEX
8
0
10
8.018
20
25.399434375000002
30
0
0
VERTEX
8
0
10
8.018
20
23.800565625
30
0
0
VERTEX
8
0
10
8.025337500000001
20
23.726056250000003
30
0
42
0.38574240611503685
0
VERTEX
8
0
10
8.817434375000001
20
23.076
30
0
0
SEQEND
0
CIRCLE
8
drills_PTH
10
18.94
20
24.6
30
0
40
0.508
0
CIRCLE
8
drills_PTH
10
16.400000000000002
20
24.6
30
0
40
0.508
0
CIRCLE
8
drills_PTH
10
13.860000000000001
20
24.6
30
0
40
0.508
0
CIRCLE
8
drills_PTH
10
11.32
20
24.6
30
0
40
0.508
0
CIRCLE
8
drills_PTH
10
8.780000000000001
20
24.6
30
0
40
0.508
0
CIRCLE
8
drills_PTH
10
6.24
20
24.6
30
0
40
0.508
0
CIRCLE
8
drills_NPTH
10
2
20
2
30
0
40
0.45
0
CIRCLE
8
drills_NPTH
10
22
20
2
30
0
40
0.45
0
CIRCLE
8
drills_NPTH
10
2
20
26
30
0
40
0.45
0
CIRCLE
8
drills_NPTH
10
23
20
26
30
0
40
0.45
0
CIRCLE
8
drills_PTH
10
9.495000000000001
20
2.81
30
0
40
0.35000000000000003
0
CIRCLE
8
drills_PTH
10
14.945
20
2.81
30
0
40
0.35000000000000003
0
CIRCLE
8
drills_PTH
10
9.795
20
5.84
30
0
40
0.325
0
CIRCLE
8
drills_PTH
10
14.645000000000001
20
5.84
30
0
40
0.325
0
CIRCLE
8
drills_via_1_16
10
13
20
10
30
0
40
0.17500000000000002
0
CIRCLE
8
drills_via_1_16
10
6
20
16
30
0
40
0.17500000000000002
0
CIRCLE
8
drills_via_1_16
10
12
20
11
30
0
40
0.17500000000000002
0
CIRCLE
8
drills_via_1_16
10
7
20
15
30
0
40
0.17500000000000002
0
ENDSEC
0
EOF